<?xml version="1.0" encoding="utf-8"?>
<!-- Generator: Adobe Illustrator 21.0.2, SVG Export Plug-In . SVG Version: 6.00 Build 0)  -->
<svg version="1.1" id="Layer_1" xmlns="http://www.w3.org/2000/svg" xmlns:xlink="http://www.w3.org/1999/xlink" x="0px" y="0px"
	 viewBox="0 0 56 22" style="enable-background:new 0 0 56 22;" xml:space="preserve">
<title>Çift Kabin Pick-Up</title>
<desc></desc>
<g id="WEB">
	<g id="Kasa-Tipi" transform="translate(-62.000000, -238.000000)">
		<g id="Group" transform="translate(41.000000, 45.000000)">
			<g id="Group-36" transform="translate(21.000000, 193.000000)">
				<g id="Group-3" transform="translate(28.000000, 11.000000) scale(-1, 1) translate(-28.000000, -11.000000) ">
					<path id="Fill-1" d="M49.4,17c0,2.6-2.1,4.6-4.6,4.6s-4.6-2.1-4.6-4.6c0-2.6,2.1-4.6,4.6-4.6S49.4,14.5,49.4,17z M13.6,17
						c0,2.6-2.1,4.6-4.6,4.6c-2.6,0-4.6-2.1-4.6-4.6c0-2.6,2.1-4.6,4.6-4.6C11.5,12.4,13.6,14.5,13.6,17z M17.8,6.5
						c-0.3,0,0.2-0.2,0.2-0.6c0-0.7-1.2-0.7-1.9-0.7l3.1-2.8c0.4-0.4,0.7-0.6,1.3-0.8c0.8-0.4,1.4-0.6,2.1-0.6h4.5
						c0.3,0,0.3,0.1,0.3,0.4c-0.1,0.9-0.4,3.3-0.6,4.4c-0.1,0.5-0.2,0.7-0.8,0.7H17.8z M28.7,1.5c0-0.3,0.1-0.4,0.4-0.4h1.4
						c0.1,0,0.5,0,0.5,0.4l0.9,4.2c0.3,0.8-0.1,0.9-0.5,0.9h-2.5c-0.8,0-0.8,0-0.7-0.6C28.5,3.7,28.6,2.1,28.7,1.5z M55.9,13.8
						c0-0.9-0.4-0.6-0.7-0.9c-0.1-1.3,0-3.5-0.1-4.8c-0.2-1.5-0.6-1.7-2.3-1.7l-17.3,0c-0.5,0-0.7-0.1-0.8-0.2
						c-0.4-0.2-1.1-2.8-2-4.9C32.2,0.5,32.4,0,31.4,0h-9.1c-1.4,0-2.7,0.6-3.8,1.6l-5.2,4.2c-3.9,0.3-7.9,1-11.1,1.8
						c-1,0.3-1.4,0.7-1.4,1.8l0,3.7c-0.1,0-0.3,0-0.5,0.1C0,13.3,0,13.4,0,13.7c0,0.2,0,0.5,0,0.7c0,0.6,0.1,2.3,0.5,2.6
						c0.2,0.2,0.5,0.3,0.8,0.3l0.9,0c0.7-0.1,0.8-0.4,1-1.2c0.5-2.8,2.9-4.8,5.7-4.8c3,0,5.5,2.3,5.8,5.2c0.1,0.8,0.5,0.8,1.2,0.9
						l22.4,0c0.5,0,0.6-0.3,0.6-0.7c0.2-3,2.7-5.4,5.8-5.4c3,0,5.5,2.3,5.8,5.3c0.1,0.8,0.1,0.9,0.8,0.9l0.9,0c0.8,0,3.4-0.1,3.6-1
						C56,15.6,55.9,14.5,55.9,13.8z"/>
				</g>
			</g>
		</g>
	</g>
</g>
</svg>
