<?xml version="1.0" encoding="UTF-8"?>
<svg width="51px" height="18px" viewBox="0 0 51 18" version="1.1" xmlns="http://www.w3.org/2000/svg" xmlns:xlink="http://www.w3.org/1999/xlink">
    <!-- Generator: sketchtool 53.2 (72643) - https://sketchapp.com -->
    <title>Hatchback</title>
    <desc></desc>
    <g id="WEB" stroke="none" stroke-width="1" fill="none" fill-rule="evenodd">
        <g id="Kasa-Tipi" transform="translate(-196.000000, -121.000000)" fill="#A2A5B7">
            <g id="Group" transform="translate(41.000000, 45.000000)">
                <path d="M201.113141,89.815004 C201.113141,92.1263658 199.27039,94 196.997127,94 C194.723863,94 192.881112,92.1263658 192.881112,89.815004 C192.881112,87.5036421 194.723863,85.6300079 196.997127,85.6300079 C199.27039,85.6300079 201.113141,87.5036421 201.113141,89.815004 Z M167.18089,89.815004 C167.18089,92.1263658 165.338139,94 163.064875,94 C160.792005,94 158.948861,92.1263658 158.948861,89.815004 C158.948861,87.5036421 160.792005,85.6300079 163.064875,85.6300079 C165.338139,85.6300079 167.18089,87.5036421 167.18089,89.815004 Z M176.144593,82.2593052 C175.538337,82.2545082 175.397978,82.1113973 175.306371,81.5085724 C175.116474,80.2593496 174.803124,78.3989072 174.674167,77.537843 C174.634064,77.2676112 174.622663,77.1304965 174.94309,77.1348937 C176.785447,77.1744691 179.099993,77.1880607 180.819291,77.7732965 C182.904623,78.5084391 185.495955,79.7716531 187.065458,80.9581149 C186.25633,80.9045482 184.689186,80.9585146 184.732041,81.6844629 C184.757203,82.1141955 184.898348,82.5223416 184.925083,82.6302744 C184.95457,82.7470018 178.537771,82.2796926 176.144593,82.2593052 Z M173.040185,82.2021408 C170.118204,82.1661632 166.852206,81.8523585 163.92708,81.7528204 C163.663268,81.7440259 163.524482,81.6388913 163.414396,81.4717952 C163.256345,81.2323442 164.238857,80.0718663 164.37096,79.8879807 C164.713404,79.4114772 166.081608,77.8292617 166.749591,77.6389801 C168.630871,77.1952562 170.79287,77.2288353 172.735877,77.1348937 C172.914766,77.1260992 173.153022,77.3507594 173.193911,77.459092 C173.447108,78.1262769 173.487997,78.9205826 173.817466,81.6648751 C173.907501,82.415608 173.859535,82.2121346 173.040185,82.2021408 Z M157.722981,90.6053122 C157.714331,90.3490717 157.713938,90.0856356 157.713938,89.815004 C157.713938,86.8104734 160.109868,84.3743892 163.064875,84.3743892 C166.020275,84.3743892 168.415812,86.8104734 168.415812,89.815004 C168.415812,90.2251488 168.407949,90.6245003 168.369419,91.0086613 C168.241641,92.2778715 168.488154,92.1655414 169.40776,92.2798703 L190.910977,92.3034556 C192.176173,92.2370969 191.766105,92.3762103 191.673711,91.0370436 C191.646976,90.6440881 191.64619,90.2351426 191.64619,89.815004 C191.64619,86.8104734 194.041727,84.3743892 196.997127,84.3743892 C199.952133,84.3743892 202.348064,86.8104734 202.348064,89.815004 C202.348064,90.1208137 202.343739,90.4182286 202.32526,90.7076486 C202.272183,91.5519232 202.462867,91.5175446 203.083277,91.6370703 L204.362233,91.5946966 C205.054985,91.5719108 205.636472,91.1893488 205.818899,90.5293595 C206.066591,89.6335169 205.983634,88.9887181 205.996608,88.0844807 C206.004865,87.5080394 205.894779,87.0815048 205.440284,87.0439282 C205.25078,86.5810162 205.054199,86.1037132 204.640199,85.2886204 C204.260404,84.5406857 203.733567,83.9446566 202.503363,83.6084658 C199.952133,82.9108998 195.665093,82.1285866 190.412447,81.2079594 C187.44368,79.3303277 184.579887,77.7904858 181.292265,76.7279469 C177.293413,75.4359508 168.370205,76.1391133 164.289182,76.7351425 C163.467473,76.8550678 163.653832,76.9338188 162.888345,77.2600159 C161.729696,77.7541084 158.674827,79.5825707 157.608178,80.2529536 C156.695648,80.8265967 156.4857,81.5209646 156.43105,82.0446388 C156.280076,83.4905392 155.682863,86.0769299 155.603051,87.4848538 C155.590076,87.7159101 155.035718,87.7175091 155.033359,87.939371 C155.02353,88.8524029 154.841103,90.6340943 155.445393,91.2053389 C155.635683,91.3848272 156.098042,91.5179444 156.681495,91.6198809 C157.980895,91.8461402 157.757186,91.63747 157.722981,90.6053122 Z" id="Fill-15"></path>
            </g>
        </g>
    </g>
</svg>