<?xml version="1.0" encoding="utf-8"?>
<!-- Generator: Adobe Illustrator 21.0.2, SVG Export Plug-In . SVG Version: 6.00 Build 0)  -->
<svg version="1.1" id="Layer_1" xmlns="http://www.w3.org/2000/svg" xmlns:xlink="http://www.w3.org/1999/xlink" x="0px" y="0px"
	 viewBox="0 0 228.3 110.8" style="enable-background:new 0 0 228.3 110.8;" xml:space="preserve">
	 <title>CDV</title>
<style type="text/css">
	.st0{fill:#8688A2;}
</style>
<g>
	<path class="st0" d="M220.8,44.9L189.9,35L165.5,4.2c-2.1-2.6-5.2-4.2-8.6-4.2L7.8,0.3C2.9,0.3,0,3.1,0,8c0,7.5,0,15,0,22.6
		c0,17.9,0,35.5,0,53.4c0,3.6,1.8,6,4.7,7c4.4,1.6,8.3-0.8,9.6-5.7c3.9-14.8,18.9-23.6,34.5-18.2c8,2.9,13.7,9.9,16.1,17.9
		c1.3,4.7,3.4,6.2,8.3,6.2c19.5,0,76.3,0,77.3,0c3.4,0,6.5-2.1,7.5-6.5c3.6-13.5,17.4-22.1,30.9-18.9c10.4,2.6,16.9,9.1,19.7,19.5
		c1,3.9,3.4,6,7.5,6c1.6,0,3.1,0,4.7,0c4.7,0,7.5-3.1,7.5-7.8c0-4.9,0-19.2,0-28.5C228.3,50.3,225.2,46.2,220.8,44.9z M130.7,34.8
		c-1.6,0-3.6,0-3.6-1.3V13.2c0-1.6,2.1-4.4,3.6-4.4h25.4c0.8,0,1.6,0.5,2.1,1.3l19.2,24.6H130.7z"/>
	<path class="st0" d="M40,71.9c-10.6,0-19.5,8.8-19.5,19.5c0,10.6,8.8,19.5,19.5,19.5c10.6,0,19.5-8.8,19.5-19.5
		C59.4,80.7,50.6,71.9,40,71.9z"/>
	<path class="st0" d="M183.7,71.9c-10.6,0-19.5,8.8-19.5,19.5c0,10.6,8.6,19.5,19.5,19.5c10.6,0,19.5-8.8,19.5-19.5
		C202.9,80.7,194.3,71.9,183.7,71.9z"/>
</g>
</svg>
