<?xml version="1.0" encoding="utf-8"?>
<!-- Generator: Adobe Illustrator 21.0.2, SVG Export Plug-In . SVG Version: 6.00 Build 0)  -->
<svg version="1.1" id="Layer_1" xmlns="http://www.w3.org/2000/svg" xmlns:xlink="http://www.w3.org/1999/xlink" x="0px" y="0px"
	 viewBox="0 0 55.6 21.7" style="enable-background:new 0 0 55.6 21.7;" xml:space="preserve">
<title>Van</title>
<desc></desc>
<g id="WEB">
	<g id="Kasa-Tipi" transform="translate(-193.000000, -238.000000)">
		<g id="Group" transform="translate(41.000000, 45.000000)">
			<g id="Group-3" transform="translate(152.000000, 193.000000)">
				<g id="Clip-2">
				</g>
				<defs>
					<filter id="Adobe_OpacityMaskFilter" filterUnits="userSpaceOnUse" x="0" y="0" width="55.6" height="21.7">
						<feColorMatrix  type="matrix" values="1 0 0 0 0  0 1 0 0 0  0 0 1 0 0  0 0 0 1 0"/>
					</filter>
				</defs>
				<mask maskUnits="userSpaceOnUse" x="0" y="0" width="55.6" height="21.7" id="mask-2">
					<g class="st0">
						<polygon id="path-1" class="st1" points="0,0 55.6,0 55.6,21.7 0,21.7 						"/>
					</g>
				</mask>
				<path id="Fill-1" class="st2" d="M46.6,13.3c2.3,0,4.2,1.9,4.2,4.2c0,2.3-1.9,4.2-4.2,4.2s-4.2-1.9-4.2-4.2
					C42.4,15.2,44.3,13.3,46.6,13.3 M16.2,6.7c0,0.8,0,0.6-0.9,0.6c-2.9,0-5.7-0.3-8.6-0.5C6.1,6.8,6,6.5,6.2,6C6.5,5.4,7.8,4,9,3
					c0.9-0.8,3.8-1.4,4.2-1.4c1.6,0,1,0,2.6,0c0.2,0,0.4,0.1,0.4,0.2c0,0.2,0.1,0.4,0.1,0.6C16.3,3.9,16.2,5.3,16.2,6.7 M38.9,8
					c0,0.1-7.2-0.4-9.7-0.4c-0.6,0-0.8-0.2-0.8-0.8C28.2,5.4,28,3.1,27.8,2c-0.1-0.3-0.1-0.5,0.3-0.5l2.6,0c3.3,0,7.6,2.4,10.2,4.6
					c-0.8-0.1-2.1,0-2.1,0.8C38.7,7.5,38.9,7.9,38.9,8 M26.9,7c0.1,0.8,0,0.6-0.8,0.6c-3,0-5.1-0.1-8.1-0.2c-0.6,0-0.5-0.3-0.5-0.8
					l0.1-4.3c0-0.6,0.3-0.7,0.8-0.6l7.4,0.1c0.2,0,0.4,0.1,0.4,0.2C26.5,2.6,26.6,3.9,26.9,7 M4.8,19.3c0.6,0,0.7-0.3,0.6-0.8
					c-0.1-0.3-0.1-0.6-0.1-1c0-3,2.4-5.4,5.4-5.4c3,0,5.4,2.4,5.4,5.4c0,0.5-0.1,1-0.2,1.4c-0.3,1.2,0.1,1,0.9,1l23.8,0
					c0.8-0.1,1,0.1,0.7-1c-0.1-0.5-0.2-1-0.2-1.5c0-3,2.4-5.4,5.4-5.4c3,0,5.4,2.4,5.4,5.4c0,0.3,0,0.5-0.1,0.8
					c-0.1,1.1-0.1,0.9,0.8,1l1.3,0c0.3,0,0.6-0.2,0.8-0.3c0.3-0.2,0.5-0.6,0.6-1.3c0.2-0.7,0.2-1.7,0.1-2.5c0-0.3,0-0.6-0.1-0.8
					c-0.1-0.2-0.1-0.1-0.4-0.1c-0.1-0.3-0.3-0.7-0.4-1.2c-0.2-0.8-0.3-1.4-0.6-1.8c-0.3-0.7-0.7-1.2-1.8-1.6c-2.7-1-5.9-2.2-7.9-2.9
					c-3.7-2.2-8.8-5.8-13.1-6.2c-0.8-0.1-1.6-0.1-2.5-0.1L9.8,0C8.2,0,6.9,0,6.2,0C5.6,0.1,5.5,0,5.5,0.7c0,0.3,0,0.6-0.2,0.8
					C3.9,3,2.9,5.7,2.5,6.6c-0.5,0.9-1,1.8-1.3,3c-0.4,1.6-0.5,3.2-0.6,4.8c0,0.3-0.6,0.3-0.6,0.5c0,1-0.1,3,0.5,3.7
					c0.2,0.2,0.7,0.4,1.2,0.5C2.7,19.1,3.9,19.2,4.8,19.3 M10.8,13.3c2.3,0,4.2,1.9,4.2,4.2c0,2.3-1.9,4.2-4.2,4.2
					c-2.3,0-4.2-1.9-4.2-4.2C6.6,15.2,8.5,13.3,10.8,13.3"/>
			</g>
		</g>
	</g>
</g>
</svg>
