<svg id="Layer_1" data-name="Layer 1" xmlns="http://www.w3.org/2000/svg" viewBox="0 0 228.3 110.8"><defs><style>.cls-1{fill:#8688a2;}</style></defs><title>panelvan5</title><path class="cls-1" d="M220.8,44.9,189.9,35,165.5,4.2A11,11,0,0,0,156.9,0L7.8.3C2.9.3,0,3.1,0,8V84c0,3.6,1.8,6,4.7,7,4.4,1.6,8.3-.8,9.6-5.7,3.9-14.8,18.9-23.6,34.5-18.2C56.8,70,62.5,77,64.9,85c1.3,4.7,3.4,6.2,8.3,6.2h77.3c3.4,0,6.5-2.1,7.5-6.5,3.6-13.5,17.4-22.1,30.9-18.9,10.4,2.6,16.9,9.1,19.7,19.5,1,3.9,3.4,6,7.5,6h4.7c4.7,0,7.5-3.1,7.5-7.8V55A10.53,10.53,0,0,0,220.8,44.9ZM119.59,29.57a5.23,5.23,0,0,1-5.23,5.23H82.54a5.23,5.23,0,0,1-5.23-5.23V14A5.23,5.23,0,0,1,82.54,8.8h31.82A5.23,5.23,0,0,1,119.59,14ZM130.7,34.7v.1c-1.6,0-3.6,0-3.6-1.3V13.2c0-1.6,2.1-4.4,3.6-4.4h25.4a2.58,2.58,0,0,1,2.1,1.3l19.2,24.6Z"/><path class="cls-1" d="M40,71.9A19.5,19.5,0,1,0,59.5,91.4,19.66,19.66,0,0,0,40,71.9Z"/><path class="cls-1" d="M183.7,71.9a19.5,19.5,0,1,0,19.5,19.5C202.9,80.7,194.3,71.9,183.7,71.9Z"/></svg>