<svg id="Layer_1" data-name="Layer 1" xmlns="http://www.w3.org/2000/svg" xmlns:xlink="http://www.w3.org/1999/xlink" viewBox="0 0 375 70"><defs><style>.cls-1{fill:#fff;}.cls-2{mask:url(#mask);}.cls-3{opacity:0.1;}.cls-3,.cls-4{isolation:isolate;}</style><mask id="mask" x="0" y="0" width="375" height="70" maskUnits="userSpaceOnUse"><g id="b"><path id="a" class="cls-1" d="M0,0H375V70H0Z"/></g></mask></defs><title>Artboard 1</title><g class="cls-2"><g class="cls-3"><g class="cls-4"><path d="M89.46,28.52A8.87,8.87,0,0,1,91.73,35V52.48a.46.46,0,0,1-.52.52H88.6a.46.46,0,0,1-.52-.52V35.69a6.3,6.3,0,0,0-1.65-4.58,5.74,5.74,0,0,0-4.31-1.7,6.1,6.1,0,0,0-4.47,1.67,6,6,0,0,0-1.7,4.5V52.48a.46.46,0,0,1-.52.52H72.75a.46.46,0,0,1-.52-.52V35.69a6.36,6.36,0,0,0-1.62-4.58,5.73,5.73,0,0,0-4.34-1.7,5.92,5.92,0,0,0-4.42,1.67,6.13,6.13,0,0,0-1.65,4.5V52.48a.46.46,0,0,1-.52.52H57a.46.46,0,0,1-.52-.52V27.06a.46.46,0,0,1,.52-.52h2.67a.46.46,0,0,1,.52.52v2.09a.12.12,0,0,0,.08.13c.05,0,.11,0,.18-.08a7.08,7.08,0,0,1,3-2.28,10.24,10.24,0,0,1,4-.76,9.29,9.29,0,0,1,4.66,1.1A7,7,0,0,1,75,30.46q.1.26.26,0a7.5,7.5,0,0,1,3.24-3.22,10.3,10.3,0,0,1,4.76-1.07A8.22,8.22,0,0,1,89.46,28.52Z"/><path d="M100.15,20.89a2.84,2.84,0,0,1-.84-2.09,2.82,2.82,0,0,1,.84-2.12,3.11,3.11,0,0,1,4.18,0,2.82,2.82,0,0,1,.84,2.12,3,3,0,0,1-5,2.09Zm.1,31.54V27a.46.46,0,0,1,.52-.52h2.67A.46.46,0,0,1,104,27V52.42a.46.46,0,0,1-.52.52h-2.67A.46.46,0,0,1,100.26,52.42Z"/><path d="M130.73,28.63a8.86,8.86,0,0,1,2.48,6.59V52.48a.46.46,0,0,1-.52.52H130a.46.46,0,0,1-.52-.52V35.95a6.53,6.53,0,0,0-1.75-4.71,6,6,0,0,0-4.52-1.83,6.1,6.1,0,0,0-6.43,6.43V52.48a.46.46,0,0,1-.52.52H113.6a.46.46,0,0,1-.52-.52V27.06a.46.46,0,0,1,.52-.52h2.67a.46.46,0,0,1,.52.52v2.25a.17.17,0,0,0,.08.16c.05,0,.1,0,.13-.05q2.3-3.24,7.06-3.24A9.07,9.07,0,0,1,130.73,28.63Z"/><path d="M144.51,51.48a9.91,9.91,0,0,1-3.77-5.33,22.78,22.78,0,0,1-.73-6.43,22.22,22.22,0,0,1,.73-6.38,9.65,9.65,0,0,1,3.71-5.28A11.07,11.07,0,0,1,151,26.12a10.7,10.7,0,0,1,6.41,1.93,9.7,9.7,0,0,1,3.69,5.23,21.83,21.83,0,0,1,.73,6.43,21.51,21.51,0,0,1-.73,6.43,9.7,9.7,0,0,1-3.69,5.33A10.78,10.78,0,0,1,151,53.42,10.89,10.89,0,0,1,144.51,51.48Zm10.77-2.69A6.81,6.81,0,0,0,157.69,45a22.9,22.9,0,0,0,.47-5.28,25.3,25.3,0,0,0-.42-5.28,6.76,6.76,0,0,0-2.43-3.74,7,7,0,0,0-4.37-1.39,6.66,6.66,0,0,0-6.75,5.13,25.23,25.23,0,0,0-.42,5.28,25.23,25.23,0,0,0,.42,5.28,6.5,6.5,0,0,0,2.38,3.74A7,7,0,0,0,151,50.18,6.76,6.76,0,0,0,155.28,48.79Z"/><path d="M180.44,29.62h-5.91a.18.18,0,0,0-.21.21V45.26a4.61,4.61,0,0,0,1.12,3.53,5.14,5.14,0,0,0,3.53,1h1.31a.46.46,0,0,1,.52.52v2.14a.46.46,0,0,1-.52.52q-.63.05-1.93.05a9.61,9.61,0,0,1-5.7-1.41q-1.94-1.41-1.94-5.23V29.83a.19.19,0,0,0-.21-.21h-3.19a.46.46,0,0,1-.52-.52v-2a.46.46,0,0,1,.52-.52h3.19a.18.18,0,0,0,.21-.21V20.26a.46.46,0,0,1,.52-.52h2.56a.46.46,0,0,1,.52.52v6.07a.18.18,0,0,0,.21.21h5.91a.46.46,0,0,1,.52.52v2A.46.46,0,0,1,180.44,29.62Z"/><path d="M191,51.48a9.91,9.91,0,0,1-3.77-5.33,22.8,22.8,0,0,1-.73-6.43,22.23,22.23,0,0,1,.73-6.38,9.65,9.65,0,0,1,3.71-5.28,11.07,11.07,0,0,1,6.59-1.93,10.7,10.7,0,0,1,6.41,1.93,9.7,9.7,0,0,1,3.69,5.23,21.83,21.83,0,0,1,.73,6.43,21.51,21.51,0,0,1-.73,6.43,9.7,9.7,0,0,1-3.69,5.33,10.77,10.77,0,0,1-6.46,1.93A10.89,10.89,0,0,1,191,51.48Zm10.78-2.69A6.81,6.81,0,0,0,204.13,45a22.9,22.9,0,0,0,.47-5.28,25.3,25.3,0,0,0-.42-5.28,6.76,6.76,0,0,0-2.43-3.74,7,7,0,0,0-4.37-1.39,6.66,6.66,0,0,0-6.75,5.13,25.24,25.24,0,0,0-.42,5.28,25.23,25.23,0,0,0,.42,5.28A6.49,6.49,0,0,0,193,48.79a7,7,0,0,0,4.42,1.39A6.76,6.76,0,0,0,201.73,48.79Z"/><path d="M247.29,39.77a23.43,23.43,0,0,1-.73,6.64,9.91,9.91,0,0,1-3.45,5.13A9.76,9.76,0,0,1,237,53.42a8.65,8.65,0,0,1-3.82-.84,7.67,7.67,0,0,1-2.88-2.41.13.13,0,0,0-.16-.08.12.12,0,0,0-.11.13v2.25a.46.46,0,0,1-.52.52h-2.67a.46.46,0,0,1-.52-.52V16.91a.46.46,0,0,1,.52-.52h2.67a.46.46,0,0,1,.52.52V29.25a.12.12,0,0,0,.08.13c.05,0,.11,0,.18-.08A7.87,7.87,0,0,1,233.16,27a8.65,8.65,0,0,1,3.82-.84A10,10,0,0,1,243.21,28a9.67,9.67,0,0,1,3.45,5.26A26.29,26.29,0,0,1,247.29,39.77Zm-3.92,3.84a27.38,27.38,0,0,0,.21-3.84,21.58,21.58,0,0,0-.29-4,9.12,9.12,0,0,0-.92-2.59,5.94,5.94,0,0,0-2.2-2.77,6.21,6.21,0,0,0-3.61-1,5.58,5.58,0,0,0-3.43,1.07,5.92,5.92,0,0,0-2.07,2.85,9.4,9.4,0,0,0-.76,2.51,25.64,25.64,0,0,0-.24,4,24.67,24.67,0,0,0,.24,3.9,11,11,0,0,0,.71,2.48,6.46,6.46,0,0,0,2.09,2.93,5.54,5.54,0,0,0,3.5,1.1,6.52,6.52,0,0,0,3.79-1.1,5.71,5.71,0,0,0,2.22-3A8.81,8.81,0,0,0,243.36,43.61Z"/><path d="M254.87,52.48V16.91a.46.46,0,0,1,.52-.52h2.67a.46.46,0,0,1,.52.52V52.48a.46.46,0,0,1-.52.52h-2.67A.46.46,0,0,1,254.87,52.48Z"/><path d="M270.51,51.48a9.91,9.91,0,0,1-3.77-5.33,22.8,22.8,0,0,1-.73-6.43,22.23,22.23,0,0,1,.73-6.38,9.65,9.65,0,0,1,3.71-5.28A11.07,11.07,0,0,1,277,26.12a10.7,10.7,0,0,1,6.41,1.93,9.7,9.7,0,0,1,3.69,5.23,21.83,21.83,0,0,1,.73,6.43,21.51,21.51,0,0,1-.73,6.43,9.7,9.7,0,0,1-3.69,5.33A10.77,10.77,0,0,1,277,53.42,10.89,10.89,0,0,1,270.51,51.48Zm10.78-2.69A6.81,6.81,0,0,0,283.69,45a22.9,22.9,0,0,0,.47-5.28,25.3,25.3,0,0,0-.42-5.28,6.76,6.76,0,0,0-2.43-3.74,7,7,0,0,0-4.37-1.39,6.66,6.66,0,0,0-6.75,5.13,25.24,25.24,0,0,0-.42,5.28,25.23,25.23,0,0,0,.42,5.28,6.49,6.49,0,0,0,2.38,3.74A7,7,0,0,0,277,50.18,6.76,6.76,0,0,0,281.28,48.79Z"/><path d="M312.25,26.53h2.67a.46.46,0,0,1,.52.52V52.11q0,5.86-3.37,8.58t-9.28,2.72q-1.2,0-1.83-.05a.52.52,0,0,1-.52-.58l.11-2.41a.48.48,0,0,1,.16-.39.39.39,0,0,1,.37-.08l1.41.05q4.86,0,7.06-1.91t2.2-6V50.07a.12.12,0,0,0-.08-.13c-.05,0-.11,0-.18.08a8.12,8.12,0,0,1-6.85,3.14,10.35,10.35,0,0,1-6-1.83A8.81,8.81,0,0,1,295,46.15a24.26,24.26,0,0,1-.63-6.38q0-2.3.13-3.87a12.08,12.08,0,0,1,.55-2.82,9.77,9.77,0,0,1,3.4-5,9.35,9.35,0,0,1,5.91-1.91,8.41,8.41,0,0,1,7.06,3.09c.07.07.13.09.18.05a.18.18,0,0,0,.08-.16v-2A.46.46,0,0,1,312.25,26.53Zm-.58,16.53q.05-1.15.05-3.35,0-2.67-.05-3.58a8.56,8.56,0,0,0-.26-1.7,6.24,6.24,0,0,0-2.07-3.63,6.09,6.09,0,0,0-4.16-1.44A6.29,6.29,0,0,0,301,30.77a7.44,7.44,0,0,0-2.38,3.66,19,19,0,0,0-.52,5.23,18,18,0,0,0,.52,5.28A6.53,6.53,0,0,0,305.18,50a6.24,6.24,0,0,0,4.21-1.41A6.12,6.12,0,0,0,311.46,45,13,13,0,0,0,311.67,43.06Z"/></g></g></g></svg>