<?xml version="1.0" encoding="utf-8"?>
<!-- Generator: Adobe Illustrator 21.0.2, SVG Export Plug-In . SVG Version: 6.00 Build 0)  -->
<svg version="1.1" id="Layer_1" xmlns="http://www.w3.org/2000/svg" xmlns:xlink="http://www.w3.org/1999/xlink" x="0px" y="0px"
	 viewBox="0 0 1170 215" style="enable-background:new 0 0 1170 215;" xml:space="preserve">
<style type="text/css">
	.st0{opacity:0.1;enable-background:new    ;}
	.st1{enable-background:new    ;}
</style>
<g class="st0">
	<g class="st1">
		<path d="M165.1,102.2c6.5,6.7,9.7,15.9,9.7,27.6v75c0,1.5-0.7,2.2-2.2,2.2h-11.2c-1.5,0-2.2-0.7-2.2-2.2v-71.9
			c0-8.2-2.4-14.7-7.1-19.6c-4.7-4.9-10.9-7.3-18.5-7.3c-7.9,0-14.3,2.4-19.2,7.2c-4.9,4.8-7.3,11.2-7.3,19.3v72.4
			c0,1.5-0.7,2.2-2.2,2.2H93.6c-1.5,0-2.2-0.7-2.2-2.2v-71.9c0-8.2-2.3-14.7-6.9-19.6c-4.6-4.9-10.8-7.3-18.6-7.3
			c-7.9,0-14.2,2.4-18.9,7.2c-4.7,4.8-7.1,11.2-7.1,19.3v72.4c0,1.5-0.7,2.2-2.2,2.2H26.1c-1.5,0-2.2-0.7-2.2-2.2V95.9
			c0-1.5,0.7-2.2,2.2-2.2h11.4c1.5,0,2.2,0.7,2.2,2.2v9c0,0.3,0.1,0.5,0.3,0.6c0.2,0.1,0.5,0,0.8-0.3c3.3-4.3,7.5-7.6,12.7-9.7
			c5.2-2.2,10.9-3.2,17.1-3.2c7.8,0,14.4,1.6,19.9,4.7c5.5,3.1,9.7,7.7,12.5,13.7c0.3,0.7,0.7,0.7,1.1,0c3.3-6.1,7.9-10.7,13.9-13.8
			c6-3.1,12.8-4.6,20.4-4.6C149.8,92.1,158.6,95.4,165.1,102.2z"/>
		<path d="M210.9,69.5c-2.4-2.4-3.6-5.4-3.6-9c0-3.7,1.2-6.8,3.6-9.1c2.4-2.3,5.4-3.5,9-3.5s6.6,1.2,9,3.5c2.4,2.3,3.6,5.3,3.6,9.1
			c0,3.6-1.2,6.6-3.6,9c-2.4,2.4-5.4,3.6-9,3.6S213.3,71.9,210.9,69.5z M211.4,204.5V95.7c0-1.5,0.7-2.2,2.2-2.2H225
			c1.5,0,2.2,0.7,2.2,2.2v108.9c0,1.5-0.7,2.2-2.2,2.2h-11.4C212.1,206.8,211.4,206,211.4,204.5z"/>
		<path d="M341.9,102.6c7.1,7,10.6,16.4,10.6,28.2v73.9c0,1.5-0.7,2.2-2.2,2.2h-11.4c-1.5,0-2.2-0.7-2.2-2.2V134
			c0-8.2-2.5-14.9-7.5-20.2c-5-5.2-11.5-7.8-19.4-7.8c-8.2,0-14.9,2.5-19.9,7.6c-5.1,5.1-7.6,11.7-7.6,19.9v71.2
			c0,1.5-0.7,2.2-2.2,2.2h-11.4c-1.5,0-2.2-0.7-2.2-2.2V95.9c0-1.5,0.7-2.2,2.2-2.2h11.4c1.5,0,2.2,0.7,2.2,2.2v9.6
			c0,0.3,0.1,0.5,0.3,0.7c0.2,0.2,0.4,0.1,0.6-0.2c6.6-9.3,16.6-13.9,30.2-13.9C325.2,92.1,334.8,95.6,341.9,102.6z"/>
		<path d="M400.9,200.5c-7.8-5.5-13.1-13.1-16.1-22.8c-2.1-6.9-3.1-16.1-3.1-27.6c0-11.5,1-20.6,3.1-27.3
			c2.8-9.6,8.1-17.1,15.9-22.6c7.8-5.5,17.2-8.3,28.2-8.3c10.6,0,19.7,2.8,27.4,8.3c7.7,5.5,13,13,15.8,22.4
			c2.1,6.4,3.1,15.6,3.1,27.6c0,12.1-1,21.3-3.1,27.6c-2.8,9.7-8.1,17.3-15.8,22.8c-7.7,5.5-16.9,8.3-27.7,8.3
			S408.6,206,400.9,200.5z M447,189c5.1-4,8.5-9.3,10.3-16c1.3-5.4,2-12.9,2-22.6c0-9.9-0.6-17.4-1.8-22.6
			c-1.8-6.7-5.3-12.1-10.4-16c-5.2-4-11.4-5.9-18.7-5.9c-7.3,0-13.5,2-18.6,5.9c-5.1,4-8.5,9.3-10.3,16c-1.2,5.2-1.8,12.8-1.8,22.6
			c0,9.9,0.6,17.4,1.8,22.6c1.6,6.7,5,12.1,10.2,16c5.2,4,11.5,5.9,18.9,5.9C435.8,194.9,441.9,192.9,447,189z"/>
		<path d="M554.8,106.9h-25.3c-0.6,0-0.9,0.3-0.9,0.9v66.1c0,7.2,1.6,12.2,4.8,15.1c3.2,2.9,8.3,4.4,15.1,4.4h5.6
			c1.5,0,2.2,0.7,2.2,2.2v9.2c0,1.5-0.7,2.2-2.2,2.2c-1.8,0.1-4.6,0.2-8.3,0.2c-10.8,0-18.9-2-24.4-6c-5.5-4-8.3-11.5-8.3-22.4v-71
			c0-0.6-0.3-0.9-0.9-0.9h-13.7c-1.5,0-2.2-0.7-2.2-2.2v-8.7c0-1.5,0.7-2.2,2.2-2.2h13.7c0.6,0,0.9-0.3,0.9-0.9v-26
			c0-1.5,0.7-2.2,2.2-2.2h11c1.5,0,2.2,0.7,2.2,2.2v26c0,0.6,0.3,0.9,0.9,0.9h25.3c1.5,0,2.2,0.7,2.2,2.2v8.7
			C557,106.1,556.3,106.9,554.8,106.9z"/>
		<path d="M599.8,200.5c-7.8-5.5-13.1-13.1-16.1-22.8c-2.1-6.9-3.1-16.1-3.1-27.6c0-11.5,1-20.6,3.1-27.3
			c2.8-9.6,8.1-17.1,15.9-22.6c7.8-5.5,17.2-8.3,28.2-8.3c10.6,0,19.7,2.8,27.4,8.3c7.7,5.5,13,13,15.8,22.4
			c2.1,6.4,3.1,15.6,3.1,27.6c0,12.1-1,21.3-3.1,27.6c-2.8,9.7-8.1,17.3-15.8,22.8c-7.7,5.5-16.9,8.3-27.7,8.3
			S607.6,206,599.8,200.5z M645.9,189c5.1-4,8.5-9.3,10.3-16c1.3-5.4,2-12.9,2-22.6c0-9.9-0.6-17.4-1.8-22.6
			c-1.8-6.7-5.3-12.1-10.4-16c-5.2-4-11.4-5.9-18.7-5.9c-7.3,0-13.5,2-18.6,5.9c-5.1,4-8.5,9.3-10.3,16c-1.2,5.2-1.8,12.8-1.8,22.6
			c0,9.9,0.6,17.4,1.8,22.6c1.6,6.7,5,12.1,10.2,16c5.2,4,11.5,5.9,18.9,5.9C634.7,194.9,640.9,192.9,645.9,189z"/>
		<path d="M841,150.3c0,12.2-1,21.7-3.1,28.4c-2.8,9.3-7.8,16.6-14.8,22c-7,5.4-15.8,8.1-26.2,8.1c-6,0-11.4-1.2-16.4-3.6
			c-4.9-2.4-9-5.8-12.3-10.3c-0.2-0.3-0.4-0.4-0.7-0.3c-0.3,0.1-0.4,0.3-0.4,0.6v9.6c0,1.5-0.7,2.2-2.2,2.2h-11.4
			c-1.5,0-2.2-0.7-2.2-2.2V52.4c0-1.5,0.7-2.2,2.2-2.2h11.4c1.5,0,2.2,0.7,2.2,2.2v52.9c0,0.3,0.1,0.5,0.3,0.6
			c0.2,0.1,0.5,0,0.8-0.3c3.3-4.3,7.4-7.7,12.3-10.1c4.9-2.4,10.4-3.6,16.4-3.6c10.6,0,19.5,2.7,26.7,8.2c7.2,5.5,12.1,13,14.8,22.5
			C840.1,129.3,841,138.5,841,150.3z M824.2,166.8c0.6-4,0.9-9.4,0.9-16.5c0-7.3-0.4-13-1.2-17.1c-0.8-4.1-2.1-7.8-3.9-11.1
			c-1.9-4.9-5.1-8.9-9.4-11.9c-4.3-3-9.5-4.5-15.5-4.5c-5.7,0-10.6,1.5-14.7,4.6c-4.1,3.1-7.1,7.1-8.8,12.2
			c-1.5,3.1-2.6,6.7-3.2,10.8c-0.7,4-1,9.7-1,17c0,7.2,0.3,12.7,1,16.7c0.7,4,1.7,7.5,3,10.6c1.9,5.2,4.9,9.4,9,12.5s9,4.7,15,4.7
			c6.3,0,11.7-1.6,16.2-4.7c4.6-3.1,7.7-7.4,9.5-12.8C822.6,174.3,823.6,170.8,824.2,166.8z"/>
		<path d="M873.5,204.8V52.4c0-1.5,0.7-2.2,2.2-2.2h11.4c1.5,0,2.2,0.7,2.2,2.2v152.3c0,1.5-0.7,2.2-2.2,2.2h-11.4
			C874.3,207,873.5,206.3,873.5,204.8z"/>
		<path d="M940.5,200.5c-7.8-5.5-13.1-13.1-16.1-22.8c-2.1-6.9-3.1-16.1-3.1-27.6c0-11.5,1-20.6,3.1-27.3
			c2.8-9.6,8.1-17.1,15.9-22.6c7.8-5.5,17.2-8.3,28.2-8.3c10.6,0,19.7,2.8,27.4,8.3c7.7,5.5,13,13,15.8,22.4
			c2.1,6.4,3.1,15.6,3.1,27.6c0,12.1-1,21.3-3.1,27.6c-2.8,9.7-8.1,17.3-15.8,22.8c-7.7,5.5-16.9,8.3-27.7,8.3
			S948.3,206,940.5,200.5z M986.6,189c5.1-4,8.5-9.3,10.3-16c1.3-5.4,2-12.9,2-22.6c0-9.9-0.6-17.4-1.8-22.6
			c-1.8-6.7-5.3-12.1-10.4-16c-5.2-4-11.4-5.9-18.7-5.9c-7.3,0-13.5,2-18.6,5.9c-5.1,4-8.5,9.3-10.3,16c-1.2,5.2-1.8,12.8-1.8,22.6
			c0,9.9,0.6,17.4,1.8,22.6c1.6,6.7,5,12.1,10.2,16c5.2,4,11.5,5.9,18.9,5.9C975.4,194.9,981.6,192.9,986.6,189z"/>
		<path d="M1119.2,93.7h11.4c1.5,0,2.2,0.7,2.2,2.2v107.3c0,16.7-4.8,29-14.4,36.7c-9.6,7.8-22.9,11.6-39.8,11.6
			c-3.4,0-6-0.1-7.8-0.2c-1.5-0.2-2.2-1-2.2-2.5l0.4-10.3c0-0.7,0.2-1.3,0.7-1.7c0.4-0.4,1-0.5,1.6-0.3l6,0.2
			c13.9,0,24-2.7,30.2-8.2c6.3-5.5,9.4-14.1,9.4-25.9v-8.3c0-0.3-0.1-0.5-0.3-0.6c-0.2-0.1-0.5,0-0.8,0.3
			c-6.9,9-16.7,13.4-29.3,13.4c-9.7,0-18.3-2.6-25.9-7.8c-7.5-5.2-12.6-12.6-15.1-22.2c-1.8-6.1-2.7-15.2-2.7-27.3
			c0-6.6,0.2-12.1,0.6-16.6c0.4-4.5,1.2-8.5,2.4-12.1c2.7-9,7.5-16.2,14.6-21.6c7-5.4,15.5-8.2,25.3-8.2c13.3,0,23.4,4.4,30.2,13.2
			c0.3,0.3,0.6,0.4,0.8,0.2c0.2-0.1,0.3-0.4,0.3-0.7v-8.7C1117,94.4,1117.7,93.7,1119.2,93.7z M1116.8,164.4
			c0.1-3.3,0.2-8.1,0.2-14.3c0-7.6-0.1-12.7-0.2-15.3c-0.2-2.6-0.5-5-1.1-7.3c-1.2-6.3-4.1-11.5-8.8-15.6
			c-4.7-4.1-10.6-6.2-17.8-6.2c-7,0-13,2-17.8,6c-4.9,4-8.3,9.3-10.2,15.7c-1.5,4.8-2.2,12.2-2.2,22.4c0,10.9,0.7,18.4,2.2,22.6
			c1.5,6.3,4.7,11.5,9.7,15.6c5,4.1,11.1,6.2,18.3,6.2c7.3,0,13.3-2,18-6c4.7-4,7.7-9.2,8.8-15.5
			C1116.3,170.5,1116.6,167.7,1116.8,164.4z"/>
	</g>
</g>
</svg>
