<?xml version="1.0" encoding="utf-8"?>
<!-- Generator: Adobe Illustrator 21.0.2, SVG Export Plug-In . SVG Version: 6.00 Build 0)  -->
<svg version="1.1" id="Layer_1" xmlns="http://www.w3.org/2000/svg" xmlns:xlink="http://www.w3.org/1999/xlink" x="0px" y="0px"
	 viewBox="0 0 491 247.5" style="enable-background:new 0 0 491 247.5;" xml:space="preserve">
<style type="text/css">
	.st0{fill:#EBEBF3;}
	.st1{fill:#BBBBC8;}
	.st2{fill:#F7F7FA;}
	.st3{filter:url(#filter-2);}
	.st4{filter:url(#Adobe_OpacityMaskFilter);}
	.st5{fill:#FFFFFF;}
	.st6{mask:url(#mask-4);fill:#EBEBF3;}
	.st7{fill:#145AFF;}
	.st8{opacity:0.5;}
	.st9{fill:#161D4C;}
</style>
<filter  filterUnits="objectBoundingBox" height="131.1%" id="filter-2" width="119.4%" x="-9.7%" y="-11.1%">
	<feOffset  dx="0" dy="9" in="SourceAlpha" result="shadowOffsetOuter1"></feOffset>
	<feGaussianBlur  in="shadowOffsetOuter1" result="shadowBlurOuter1" stdDeviation="9"></feGaussianBlur>
	
		<feColorMatrix  in="shadowBlurOuter1" type="matrix" values="0 0 0 0 0.0862745098   0 0 0 0 0.11372549   0 0 0 0 0.298039216  0 0 0 0.1 0">
		</feColorMatrix>
</filter>
<g id="WEB_1_">
	<g id="ÖDEME_1_" transform="translate(-782.000000, -396.000000)">
		<g id="Card_1_" transform="translate(683.000000, 360.000000)">
			<g id="Group-5" transform="translate(99.000000, 36.000000)">
				<path id="Rectangle_3_" class="st0" d="M176,45h306c5,0,9,4,9,9v184.5c0,5-4,9-9,9H176c-5,0-9-4-9-9V54C167,49,171,45,176,45z"
					/>
				<rect id="Rectangle_1_" x="167" y="83.7" class="st1" width="324" height="42.3"/>
				<path id="Rectangle_2_" class="st2" d="M415.4,154.8h54c1,0,1.8,0.8,1.8,1.8v28.8c0,1-0.8,1.8-1.8,1.8h-54c-1,0-1.8-0.8-1.8-1.8
					v-28.8C413.6,155.6,414.4,154.8,415.4,154.8z"/>
			</g>
		</g>
	</g>
</g>
<title>64408BC2-BEA6-4847-8DAC-BAC808F12CB4</title>
<desc>Created with sketchtool.</desc>
<g id="WEB">
	<g id="ÖDEME" transform="translate(-665.000000, -351.000000)">
		<g id="Card" transform="translate(683.000000, 360.000000)">
			<g id="Group">
				<g id="Rectangle">
					<g class="st3">
						<path id="path-1_2_" d="M59,0h306c5,0,9,4,9,9v184.5c0,5-4,9-9,9H59c-5,0-9-4-9-9V9C50,4,54,0,59,0z"/>
					</g>
					<g>
						<path id="path-1_1_" class="st2" d="M59,0h306c5,0,9,4,9,9v184.5c0,5-4,9-9,9H59c-5,0-9-4-9-9V9C50,4,54,0,59,0z"/>
					</g>
				</g>
				<g id="Oval" transform="translate(-0.000000, 0.000000)">
					<g id="Mask">
						<path id="path-3_1_" class="st2" d="M59,0h306c5,0,9,4,9,9v184.5c0,5-4,9-9,9H59c-5,0-9-4-9-9V9C50,4,54,0,59,0z"/>
					</g>
					<defs>
						<filter id="Adobe_OpacityMaskFilter" filterUnits="userSpaceOnUse" x="212" y="-147.6" width="232.2" height="232.2">
							<feColorMatrix  type="matrix" values="1 0 0 0 0  0 1 0 0 0  0 0 1 0 0  0 0 0 1 0"/>
						</filter>
					</defs>
					<mask maskUnits="userSpaceOnUse" x="212" y="-147.6" width="232.2" height="232.2" id="mask-4">
						<g class="st4">
							<path id="path-3" class="st5" d="M59,0h306c5,0,9,4,9,9v184.5c0,5-4,9-9,9H59c-5,0-9-4-9-9V9C50,4,54,0,59,0z"/>
						</g>
					</mask>
					<circle class="st6" cx="328.1" cy="-31.5" r="116.1"/>
				</g>
			</g>
		</g>
	</g>
</g>
<g id="WEB_2_">
	<g id="ÖDEME_2_" transform="translate(-710.000000, -430.000000)">
		<g id="Card_2_" transform="translate(683.000000, 360.000000)">
			<path id="Shape" class="st1" d="M149,172.4c0,2-1.6,3.6-3.6,3.6h-4.1v-7.7h7.7V172.4z M149,166.4h-7.7v-7.7h7.7V166.4z
				 M125.6,149h4.1v7.7H122v-4.1C122,150.6,123.6,149,125.6,149z M122,166.4v-7.7h7.7v7.7H122z M125.6,176c-2,0-3.6-1.6-3.6-3.6
				v-4.1h7.7v7.7H125.6z M131.6,149h13.7c2,0,3.6,1.6,3.6,3.6v4.1h-7.7h-1.9v1.9v7.7v1.9v7.7h-7.7V149z"/>
		</g>
	</g>
</g>
<g id="WEB_3_">
	<g id="ÖDEME_3_" transform="translate(-896.000000, -380.000000)">
		<g id="Card_3_" transform="translate(683.000000, 360.000000)">
			<g id="Group-17" transform="translate(213.300008, 20.700001)">
				<path id="Fill-3" class="st7" d="M353.5,38.7h3.2l0.5-3H354l0.8-4.7h-4.1l-0.8,4.7l-1.7,0l-1.8,1.5l1.3,1.5l0,0l0,0h1.7
					l-0.9,5.1c-0.7,4,1.4,5.2,3.9,5.2c2,0,3-0.5,3.7-1l-1.4-2.5c-0.3,0.2-0.8,0.5-1.3,0.5c-0.8,0-1.1-0.6-0.8-1.9L353.5,38.7z"/>
				<path id="Fill-5" class="st7" d="M315.8,31c0,1.5-1.2,2.7-2.7,2.7c-1.5,0-2.7-1.2-2.7-2.7c0-1.5,1.2-2.7,2.7-2.7
					C314.6,28.3,315.8,29.5,315.8,31"/>
				<path id="Fill-7" class="st7" d="M305.8,46c-0.3,0-0.6-0.3-0.5-0.6l0.7-3.7c0.7-3.7-1-6.2-3.9-6.2c-1.7,0-3.3,0.5-4.7,2.5
					c-0.6-1.6-1.8-2.5-3.5-2.5c-2,0-3.2,0.8-4.4,2.6c0,0,0.4-2.3,0.4-2.3h-6.4l-1.8,1.5l1.3,1.5h2.5L283.5,49h4.2l1.5-8.1
					c0.2-1.2,1.3-2.1,2.5-2.1c1.2,0,2,0.9,1.8,2.1L292,49h4.2l1.5-8.1c0.2-1.1,1.3-2.1,2.5-2.1c1.2,0,1.9,0.9,1.7,2.1l-0.9,5.3
					c-0.3,1.6,0.8,2.9,2.4,2.9h2.9l0.5-3H305.8z"/>
				<path id="Fill-9" class="st7" d="M339.7,45.2c-1.6,0-2.9-1.3-2.9-2.9s1.3-2.9,2.9-2.9c1.6,0,2.9,1.3,2.9,2.9
					S341.3,45.2,339.7,45.2 M339.7,35.5c-3.7,0-6.8,3-6.8,6.8c0,3.7,3,6.8,6.8,6.8c3.7,0,6.7-3,6.7-6.8
					C346.4,38.5,343.4,35.5,339.7,35.5"/>
				<path id="Fill-11" class="st7" d="M363.9,45.2c-1.6,0-2.9-1.3-2.9-2.9s1.3-2.9,2.9-2.9c1.6,0,2.9,1.3,2.9,2.9
					S365.6,45.2,363.9,45.2 M363.9,35.5c-3.7,0-6.7,3-6.7,6.8c0,3.7,3,6.8,6.7,6.8c3.7,0,6.8-3,6.8-6.8
					C370.7,38.5,367.7,35.5,363.9,35.5"/>
				<path id="Fill-13" class="st7" d="M330,46c-0.3,0-0.5-0.2-0.5-0.6l0.7-3.7c0.7-3.7-1.1-6.2-4-6.2c-2.1,0-3.3,0.8-4.5,2.6h0
					l0.4-2.3h-5.4l-1.8,1.5l1.3,1.5l1.5,0L315.9,49h4.2l1.4-7.9c0.2-1.3,1.5-2.3,2.8-2.3c1.3,0,2.2,1,1.9,2.3l-0.9,5
					c-0.3,1.6,0.8,2.9,2.4,2.9h2.9l0.5-3H330z"/>
				<path id="Fill-15" class="st7" d="M312.8,45.9c-0.3,0-0.5-0.3-0.5-0.6l1.6-9.8h-5.5l-1.7,1.6l1.2,1.6l1.5,0l-1.2,7.4
					c-0.3,1.7,0.8,3,2.3,3h2.7l0.5-3.1L312.8,45.9z"/>
			</g>
		</g>
	</g>
</g>
<g class="st8">
	<path class="st9" d="M197.3,169.8l-1.5-4.9l0,0c0,0,0-0.1,0.1-0.1h0.6c0,0,0.1,0,0.1,0.1l1.2,4c0,0,0,0,0,0s0,0,0,0l1.2-4
		c0,0,0-0.1,0.1-0.1h0.6c0.1,0,0.1,0,0.1,0.1l-1.6,4.9c0,0,0,0.1-0.1,0.1L197.3,169.8C197.4,169.9,197.3,169.9,197.3,169.8z"/>
	<path class="st9" d="M202.1,166.3c0.2,0.1,0.4,0.2,0.5,0.4c0.1,0.2,0.2,0.4,0.2,0.6v2.4c0,0,0,0.1-0.1,0.1h-0.5c0,0-0.1,0-0.1-0.1
		v-0.3c0,0,0,0,0,0c-0.1,0.1-0.3,0.2-0.5,0.3c-0.2,0.1-0.4,0.1-0.6,0.1c-0.4,0-0.6-0.1-0.9-0.3c-0.2-0.2-0.3-0.5-0.3-0.8
		c0-0.4,0.1-0.7,0.4-0.9s0.6-0.3,1.1-0.3h0.8c0,0,0,0,0,0v-0.2c0-0.2-0.1-0.4-0.2-0.5c-0.1-0.1-0.3-0.2-0.6-0.2
		c-0.2,0-0.4,0-0.5,0.1c-0.1,0.1-0.2,0.2-0.2,0.3c0,0,0,0.1-0.1,0.1l-0.6-0.1c0,0-0.1,0-0.1-0.1c0-0.3,0.2-0.5,0.5-0.7
		c0.3-0.2,0.6-0.3,1-0.3C201.6,166.2,201.9,166.2,202.1,166.3z M201.8,169.2c0.2-0.1,0.3-0.3,0.3-0.5v-0.4c0,0,0,0,0,0h-0.7
		c-0.3,0-0.5,0.1-0.7,0.2s-0.3,0.3-0.3,0.5c0,0.2,0.1,0.3,0.2,0.4c0.1,0.1,0.3,0.1,0.5,0.1C201.4,169.4,201.6,169.3,201.8,169.2z"/>
	<path class="st9" d="M203.7,169.8v-4.9c0,0,0-0.1,0.1-0.1h0.5c0,0,0.1,0,0.1,0.1v4.9c0,0,0,0.1-0.1,0.1L203.7,169.8
		C203.8,169.9,203.7,169.9,203.7,169.8z"/>
	<path class="st9" d="M205.5,165.5c-0.1-0.1-0.1-0.2-0.1-0.3c0-0.1,0-0.2,0.1-0.3c0.1-0.1,0.2-0.1,0.3-0.1c0.1,0,0.2,0,0.3,0.1
		c0.1,0.1,0.1,0.2,0.1,0.3c0,0.1,0,0.2-0.1,0.3c-0.1,0.1-0.2,0.1-0.3,0.1C205.7,165.7,205.6,165.6,205.5,165.5z M205.5,169.8v-3.5
		c0,0,0-0.1,0.1-0.1h0.5c0,0,0.1,0,0.1,0.1v3.5c0,0,0,0.1-0.1,0.1L205.5,169.8C205.5,169.9,205.5,169.9,205.5,169.8z"/>
	<path class="st9" d="M209.6,164.9h0.5c0,0,0.1,0,0.1,0.1v4.9c0,0,0,0.1-0.1,0.1h-0.5c0,0-0.1,0-0.1-0.1v-0.2c0,0,0,0,0,0
		c0,0,0,0,0,0c-0.1,0.1-0.2,0.2-0.4,0.3s-0.3,0.1-0.5,0.1c-0.3,0-0.6-0.1-0.9-0.3c-0.2-0.2-0.4-0.4-0.5-0.7
		c-0.1-0.3-0.1-0.6-0.1-0.9c0-0.3,0-0.6,0.1-0.9c0.1-0.3,0.3-0.6,0.5-0.7c0.2-0.2,0.5-0.3,0.9-0.3c0.2,0,0.3,0,0.5,0.1
		s0.3,0.2,0.4,0.3c0,0,0,0,0,0c0,0,0,0,0,0L209.6,164.9C209.5,164.9,209.6,164.9,209.6,164.9z M209.5,168.1c0-0.4-0.1-0.7-0.2-0.9
		c-0.1-0.2-0.3-0.4-0.6-0.4c-0.3,0-0.5,0.1-0.6,0.3c-0.2,0.2-0.2,0.6-0.2,1c0,0.4,0.1,0.7,0.2,0.9c0.1,0.3,0.4,0.4,0.7,0.4
		c0.3,0,0.5-0.1,0.6-0.4C209.5,168.8,209.5,168.5,209.5,168.1z"/>
	<path class="st9" d="M199.4,171.2v0.5c0,0,0,0.1-0.1,0.1H198c0,0,0,0,0,0v4.3c0,0,0,0.1-0.1,0.1h-0.5c0,0-0.1,0-0.1-0.1v-4.3
		c0,0,0,0,0,0h-1.3c0,0-0.1,0-0.1-0.1v-0.5c0,0,0-0.1,0.1-0.1L199.4,171.2C199.4,171.2,199.4,171.2,199.4,171.2z"/>
	<path class="st9" d="M202.8,172.8c0.2,0.2,0.3,0.5,0.3,0.9v2.4c0,0,0,0.1-0.1,0.1h-0.5c0,0-0.1,0-0.1-0.1v-2.2
		c0-0.2-0.1-0.4-0.2-0.6c-0.1-0.1-0.3-0.2-0.6-0.2c-0.2,0-0.4,0.1-0.6,0.2c-0.1,0.1-0.2,0.3-0.2,0.6v2.2c0,0,0,0.1-0.1,0.1h-0.5
		c0,0-0.1,0-0.1-0.1v-4.9c0,0,0-0.1,0.1-0.1h0.5c0,0,0.1,0,0.1,0.1v1.6c0,0,0,0,0,0s0,0,0,0c0.2-0.3,0.5-0.4,0.9-0.4
		C202.2,172.5,202.5,172.6,202.8,172.8z"/>
	<path class="st9" d="M206.1,172.6C206.1,172.6,206.2,172.6,206.1,172.6l-0.1,0.6c0,0,0,0.1-0.1,0c-0.1,0-0.2,0-0.3,0l-0.1,0
		c-0.2,0-0.4,0.1-0.6,0.2c-0.1,0.1-0.2,0.3-0.2,0.6v2.1c0,0,0,0.1-0.1,0.1h-0.5c0,0-0.1,0-0.1-0.1v-3.5c0,0,0-0.1,0.1-0.1h0.5
		c0,0,0.1,0,0.1,0.1v0.4c0,0,0,0,0,0c0,0,0,0,0,0c0.2-0.3,0.5-0.5,0.9-0.5C205.8,172.5,206,172.5,206.1,172.6z"/>
	<path class="st9" d="M209,172.5h0.5c0,0,0.1,0,0.1,0.1v3.5c0,0,0,0.1-0.1,0.1H209c0,0-0.1,0-0.1-0.1v-0.3c0,0,0,0,0,0c0,0,0,0,0,0
		c-0.2,0.3-0.5,0.4-0.9,0.4c-0.2,0-0.5,0-0.7-0.1c-0.2-0.1-0.4-0.2-0.5-0.4c-0.1-0.2-0.2-0.4-0.2-0.6v-2.5c0,0,0-0.1,0.1-0.1h0.5
		c0,0,0.1,0,0.1,0.1v2.2c0,0.3,0.1,0.4,0.2,0.6c0.1,0.1,0.3,0.2,0.6,0.2s0.4-0.1,0.6-0.2s0.2-0.3,0.2-0.6L209,172.5
		C208.9,172.6,209,172.5,209,172.5z"/>
</g>
</svg>
