<?xml version="1.0" encoding="utf-8"?>
<!-- Generator: Adobe Illustrator 21.0.2, SVG Export Plug-In . SVG Version: 6.00 Build 0)  -->
<svg version="1.1" id="Layer_1" xmlns="http://www.w3.org/2000/svg" xmlns:xlink="http://www.w3.org/1999/xlink" x="0px" y="0px"
	 viewBox="0 0 146 34" style="enable-background:new 0 0 146 34;" xml:space="preserve">
<style type="text/css">
	.st0{fill:#FFFFFF;}
</style>
<title>B6BA95AC-02BE-4C2C-8C24-E0EA0029FF85</title>
<desc>Created with sketchtool.</desc>
<g id="WEB">
	<g id="ANASAYFA" transform="translate(-30.000000, -17.000000)">
		<g id="Group-18" transform="translate(0.000000, -1.000000)">
			<g id="Group-17" transform="translate(30.000000, 18.000000)">
				<path id="Fill-3" class="st0" d="M116.8,16.8h5.2l0.9-5h-5.2l1.4-7.7h-6.6l-1.4,7.7l-2.7,0l-2.9,2.5l2.1,2.5l0,0l0,0h2.7
					l-1.5,8.5c-1.2,6.6,2.3,8.6,6.4,8.6c3.2,0,4.8-0.9,6-1.7l-2.2-4.2c-0.5,0.3-1.3,0.8-2.1,0.8c-1.3,0-1.8-1-1.4-3.2L116.8,16.8z"
					/>
				<path id="Fill-5" class="st0" d="M55.2,4.1c0,2.3-1.8,4.1-4.1,4.1c-2.3,0-4.1-1.8-4.1-4.1C47,1.8,48.8,0,51.1,0
					C53.4,0,55.2,1.8,55.2,4.1"/>
				<path id="Fill-7" class="st0" d="M38.6,28.4c-0.5,0-0.9-0.4-0.8-1l1.1-6c1.1-6.1-1.5-10.1-6.3-10.1c-2.7,0-5.3,0.9-7.4,4
					c-0.9-2.5-2.9-4-5.6-4c-3.2,0-5.2,1.3-7,4.2c0,0,0.7-3.7,0.7-3.7H2.9L0,14.3l2,2.5h4L3.1,33.4h6.7l2.3-13.2
					c0.3-1.9,2.1-3.4,4-3.4c1.9,0,3.1,1.5,2.8,3.4l-2.3,13.2h6.7l2.3-13.2c0.3-1.9,2.1-3.4,4-3.4c1.9,0,3.1,1.5,2.8,3.4l-1.5,8.6
					c-0.5,2.6,1.3,4.7,3.8,4.7h4.7l0.9-5H38.6z"/>
				<path id="Fill-9" class="st0" d="M93.8,27.4c-2.7,0-4.9-2.2-4.9-4.9s2.2-4.9,4.9-4.9c2.7,0,4.9,2.2,4.9,4.9S96.5,27.4,93.8,27.4
					 M93.8,11.3c-6.2,0-11.2,5-11.2,11.2s5,11.2,11.2,11.2c6.2,0,11.2-5,11.2-11.2S100,11.3,93.8,11.3"/>
				<path id="Fill-11" class="st0" d="M134,27.4c-2.7,0-4.9-2.2-4.9-4.9s2.2-4.9,4.9-4.9c2.7,0,4.9,2.2,4.9,4.9S136.7,27.4,134,27.4
					 M134,11.3c-6.2,0-11.2,5-11.2,11.2s5,11.2,11.2,11.2c6.2,0,11.2-5,11.2-11.2S140.2,11.3,134,11.3"/>
				<path id="Fill-13" class="st0" d="M78.8,28.4c-0.5,0-0.8-0.4-0.7-0.9l1.1-6.1c1.1-6.1-1.8-10.1-6.5-10.1c-3.4,0-5.4,1.3-7.2,4.2
					h0l0.7-3.7h-8.8l-2.9,2.5l2,2.5l2.5,0L56,33.4h6.7L65,20.5c0.4-2.1,2.4-3.8,4.5-3.8c2.1,0,3.5,1.7,3.1,3.8l-1.4,8.2
					c-0.5,2.6,1.3,4.7,3.8,4.7h4.7l0.9-5H78.8z"/>
				<path id="Fill-15" class="st0" d="M51.2,28.5c-0.5,0-0.9-0.4-0.8-1l2.8-15.6h-9.2L41,14.4l2,2.5l2.5,0l-2.1,11.8
					c-0.5,2.6,1.3,4.8,3.9,4.8H52l0.9-5L51.2,28.5z"/>
			</g>
		</g>
	</g>
</g>
</svg>
