<?xml version="1.0" encoding="UTF-8"?>
<svg width="95px" height="22px" viewBox="0 0 95 22" version="1.1" xmlns="http://www.w3.org/2000/svg" xmlns:xlink="http://www.w3.org/1999/xlink">
    <!-- Generator: sketchtool 52.4 (67378) - http://www.bohemiancoding.com/sketch -->
    <title>E3214B4A-1F0E-4B08-9485-A69EAC2BBBF1</title>
    <desc>Created with sketchtool.</desc>
    <g id="WEB" stroke="none" stroke-width="1" fill="none" fill-rule="evenodd">
        <g id="MENÜ" transform="translate(-1085.000000, -104.000000)" fill="#145AFF">
            <g id="Group-17" transform="translate(1085.000000, 104.000000)">
                <path d="M75.9885774,10.8765942 L79.3771163,10.8765942 L79.9355601,7.63448889 L76.5475383,7.63448889 L77.4352313,2.6561848 L73.1246137,2.6561848 L72.2362743,7.63448889 L70.4793738,7.63564678 L68.5645061,9.25644211 L69.904642,10.8755649 L69.9047713,10.8753076 L69.904642,10.8765942 L71.6764085,10.8765942 L70.6903415,16.3464889 C69.9330813,20.6362316 72.2039569,21.881483 74.8362699,21.881483 C76.9088463,21.881483 77.9623919,21.3235064 78.7183594,20.767331 L77.2709299,18.0494947 C76.9419392,18.2453076 76.4156835,18.5404421 75.8890399,18.5404421 C75.0659816,18.5404421 74.7377666,17.885331 75.0003127,16.4778456 L75.9885774,10.8765942 Z" id="Fill-3"></path>
                <path d="M35.9161989,2.65623626 C35.9161989,4.1235462 34.7217496,5.3129614 33.2475613,5.3129614 C31.7736315,5.3129614 30.579053,4.1235462 30.579053,2.65623626 C30.579053,1.18918363 31.7736315,2.57309942e-05 33.2475613,2.57309942e-05 C34.7217496,2.57309942e-05 35.9161989,1.18918363 35.9161989,2.65623626" id="Fill-5"></path>
                <path d="M25.0891235,18.3767673 C24.7324692,18.3767673 24.4938379,18.0892234 24.5565335,17.7337497 L25.2434711,13.8573754 C25.9349332,9.92670877 24.25637,7.33932865 21.1632116,7.33932865 C19.3865329,7.33932865 17.7077111,7.8969193 16.3262089,9.95925848 C15.7329916,8.32160936 14.4497342,7.33932865 12.7057607,7.33932865 C10.633055,7.33932865 9.34953909,8.15796023 8.13156274,10.0580655 C8.13014078,10.0580655 8.56009082,7.63446316 8.56009082,7.63446316 L1.89677,7.63446316 L0,9.23866199 L1.32863096,10.8433754 L3.91414836,10.8433754 L2.01130269,21.5859368 L6.36457922,21.5859368 L7.8765142,13.0545684 C8.09304046,11.8338901 9.26176516,10.8433754 10.4898245,10.8433754 C11.7186595,10.8433754 12.5362885,11.8338901 12.3200208,13.0545684 L10.7970979,21.5859368 L15.150633,21.5859368 L16.6677387,13.0212468 C16.8814211,11.8187088 18.0319188,10.8433754 19.2423975,10.8433754 C20.4524884,10.8433754 21.2583539,11.8187088 21.0453179,13.0212468 L20.0619655,18.5687205 C19.7658093,20.2368608 20.8851531,21.5859368 22.559709,21.5859368 L25.597023,21.5859368 L26.1652913,18.3767673 L25.0891235,18.3767673 Z" id="Fill-7"></path>
                <path d="M61.0213518,17.7586187 C59.2744051,17.7586187 57.8574831,16.3490749 57.8574831,14.6104316 C57.8574831,12.8717883 59.2744051,11.4622444 61.0213518,11.4622444 C62.7686864,11.4622444 64.1847035,12.8717883 64.1847035,14.6104316 C64.1847035,16.3490749 62.7686864,17.7586187 61.0213518,17.7586187 M61.0213518,7.33936725 C56.9862073,7.33936725 53.715045,10.594724 53.715045,14.6104316 C53.715045,18.6261392 56.9862073,21.8814959 61.0213518,21.8814959 C65.0561085,21.8814959 68.3270123,18.6261392 68.3270123,14.6104316 C68.3270123,10.594724 65.0561085,7.33936725 61.0213518,7.33936725" id="Fill-9"></path>
                <path d="M87.2211322,17.7586187 C85.4739269,17.7586187 84.057522,16.3490749 84.057522,14.6104316 C84.057522,12.8717883 85.4739269,11.4622444 87.2211322,11.4622444 C88.9684667,11.4622444 90.3848716,12.8717883 90.3848716,14.6104316 C90.3848716,16.3490749 88.9684667,17.7586187 87.2211322,17.7586187 M87.2211322,7.33936725 C83.1862462,7.33936725 79.9153424,10.594724 79.9153424,14.6104316 C79.9153424,18.6261392 83.1862462,21.8814959 87.2211322,21.8814959 C91.2560182,21.8814959 94.5270512,18.6261392 94.5270512,14.6104316 C94.5270512,10.594724 91.2560182,7.33936725 87.2211322,7.33936725" id="Fill-11"></path>
                <path d="M51.3027874,18.3767673 C50.9771577,18.3767673 50.7598559,18.1140538 50.8173807,17.7903579 L51.5066452,13.8573754 C52.1987536,9.92670877 50.354467,7.33932865 47.2944016,7.33932865 C45.0898412,7.33932865 43.8069716,8.15796023 42.5883489,10.0580655 L42.5875733,10.0580655 L43.0168769,7.63446316 L37.3087278,7.63446316 L35.4124748,9.23956257 L36.7403302,10.8432468 L38.3434001,10.8433754 L36.4402959,21.5859368 L40.8119287,21.5859368 L42.2862463,13.2705801 C42.5278508,11.9061942 43.8347645,10.8001474 45.2057958,10.8001474 C46.5763101,10.8001474 47.4920545,11.9061942 47.2500622,13.2705801 L46.3255274,18.5687205 C46.0306639,20.2350596 47.1485857,21.5859368 48.8227538,21.5859368 L51.8687288,21.5859368 L52.4369971,18.3767673 L51.3027874,18.3767673 Z" id="Fill-13"></path>
                <path d="M33.3184397,18.4526608 C32.9695416,18.4526608 32.7371152,18.1712924 32.7982596,17.8241813 L34.591097,7.70726901 L28.5787769,7.70726901 L26.6818777,9.31211111 L28.0101208,10.9168246 L29.6542984,10.9165673 L28.2994258,18.5656199 C27.9964183,20.2741579 29.1427794,21.659 30.8593478,21.659 L33.8344832,21.659 L34.4032686,18.4498304 L33.3184397,18.4526608 Z" id="Fill-15"></path>
            </g>
        </g>
    </g>
</svg>