<?xml version="1.0" encoding="UTF-8"?>
<svg width="146px" height="34px" viewBox="0 0 146 34" version="1.1" xmlns="http://www.w3.org/2000/svg" xmlns:xlink="http://www.w3.org/1999/xlink">
    <!-- Generator: sketchtool 52.4 (67378) - http://www.bohemiancoding.com/sketch -->
    <title>B6BA95AC-02BE-4C2C-8C24-E0EA0029FF85</title>
    <desc>Created with sketchtool.</desc>
    <g id="WEB" stroke="none" stroke-width="1" fill="none" fill-rule="evenodd">
        <g id="ANASAYFA" transform="translate(-30.000000, -17.000000)" fill="#145AFF">
            <g id="Group-18" transform="translate(0.000000, -1.000000)">
                <g id="Group-17" transform="translate(30.000000, 18.000000)">
                    <path d="M116.782445,16.8092819 L121.990095,16.8092819 L122.848335,11.7987556 L117.64148,11.7987556 L119.005724,4.10501287 L112.380985,4.10501287 L111.015748,11.7987556 L108.315669,11.800545 L105.37282,14.3054105 L107.432397,16.8076912 L107.432596,16.8072936 L107.432397,16.8092819 L110.155323,16.8092819 L108.639893,25.2627556 C107.476104,31.8923579 110.966081,33.8168374 115.011531,33.8168374 C118.196753,33.8168374 119.815887,32.9545099 120.977689,32.0949661 L118.753219,27.8946737 C118.247612,28.1972936 117.43884,28.6534105 116.629472,28.6534105 C115.364561,28.6534105 114.860147,27.6409661 115.263639,25.4657614 L116.782445,16.8092819 Z" id="Fill-3"></path>
                    <path d="M55.1975268,4.1050924 C55.1975268,6.37275322 53.3618468,8.21094035 51.0962521,8.21094035 C48.8310548,8.21094035 46.9951761,6.37275322 46.9951761,4.1050924 C46.9951761,1.83782924 48.8310548,3.97660819e-05 51.0962521,3.97660819e-05 C53.3618468,3.97660819e-05 55.1975268,1.83782924 55.1975268,4.1050924" id="Fill-5"></path>
                    <path d="M38.5580213,28.4004585 C38.0099,28.4004585 37.6431613,27.9560725 37.7395147,27.4067041 L38.7952293,21.4159439 C39.8578973,15.3412772 37.2782107,11.3425988 32.5245147,11.3425988 C29.79404,11.3425988 27.213956,12.2043298 25.0908053,15.3915813 C24.179124,12.860669 22.20696,11.3425988 19.526748,11.3425988 C16.3413267,11.3425988 14.3687653,12.6077567 12.496928,15.544283 C12.4947427,15.544283 13.155508,11.7987158 13.155508,11.7987158 L2.915036,11.7987158 L0,14.2779322 L2.041896,16.7579439 L6.015428,16.7579439 L3.09105467,33.3600842 L9.78135333,33.3600842 L12.1049587,20.1752421 C12.4377253,18.2887392 14.2338707,16.7579439 16.121204,16.7579439 C18.0097293,16.7579439 19.266296,18.2887392 18.9339267,20.1752421 L16.5934347,33.3600842 L23.2841307,33.3600842 L25.6156827,20.123745 C25.9440787,18.2652772 27.712212,16.7579439 29.5725267,16.7579439 C31.4322453,16.7579439 32.6707333,18.2652772 32.3433307,20.123745 L30.8320733,28.6971135 C30.376928,31.2751485 32.0971827,33.3600842 34.6707107,33.3600842 L39.3385827,33.3600842 L40.2119213,28.4004585 L38.5580213,28.4004585 Z" id="Fill-7"></path>
                    <path d="M93.7801828,27.445138 C91.0954015,27.445138 88.9178161,25.266752 88.9178161,22.5797579 C88.9178161,19.8927637 91.0954015,17.7143778 93.7801828,17.7143778 C96.4655601,17.7143778 98.6417548,19.8927637 98.6417548,22.5797579 C98.6417548,25.266752 96.4655601,27.445138 93.7801828,27.445138 M93.7801828,11.3426585 C87.5788028,11.3426585 82.5515428,16.3736643 82.5515428,22.5797579 C82.5515428,28.7858515 87.5788028,33.8168573 93.7801828,33.8168573 C99.9809668,33.8168573 105.007829,28.7858515 105.007829,22.5797579 C105.007829,16.3736643 99.9809668,11.3426585 93.7801828,11.3426585" id="Fill-9"></path>
                    <path d="M134.045108,27.445138 C131.35993,27.445138 129.183139,25.266752 129.183139,22.5797579 C129.183139,19.8927637 131.35993,17.7143778 134.045108,17.7143778 C136.730486,17.7143778 138.907276,19.8927637 138.907276,22.5797579 C138.907276,25.266752 136.730486,27.445138 134.045108,27.445138 M134.045108,11.3426585 C127.844126,11.3426585 122.817263,16.3736643 122.817263,22.5797579 C122.817263,28.7858515 127.844126,33.8168573 134.045108,33.8168573 C140.246091,33.8168573 145.273152,28.7858515 145.273152,22.5797579 C145.273152,16.3736643 140.246091,11.3426585 134.045108,11.3426585" id="Fill-11"></path>
                    <path d="M78.8442837,28.4004585 C78.3438424,28.4004585 78.0098837,27.9944468 78.0982904,27.4941895 L79.1575811,21.4159439 C80.2212424,15.3412772 77.3868651,11.3425988 72.6840277,11.3425988 C69.2959664,11.3425988 67.3243984,12.6077567 65.4515677,15.544283 L65.4503757,15.544283 L66.1101477,11.7987158 L57.3376237,11.7987158 L54.4233824,14.279324 L56.4640864,16.757745 L58.9277517,16.7579439 L56.0029811,33.3600842 L62.7214904,33.3600842 L64.9872837,20.5090784 C65.3585917,18.4004819 67.3671117,16.6911368 69.4741704,16.6911368 C71.5804344,16.6911368 72.9877891,18.4004819 72.6158851,20.5090784 L71.1950211,28.6971135 C70.7418624,31.2723649 72.4599317,33.3600842 75.0328637,33.3600842 L79.7140464,33.3600842 L80.5873851,28.4004585 L78.8442837,28.4004585 Z" id="Fill-13"></path>
                    <path d="M51.2051811,28.5177485 C50.6689797,28.5177485 50.3117771,28.0829064 50.4057464,27.546462 L53.1610544,11.9112339 L43.9210677,11.9112339 L41.0058331,14.3914444 L43.0471331,16.8714561 L45.5739744,16.8710585 L43.4917491,28.6923216 C43.0260744,31.3327895 44.7878504,33.473 47.4259451,33.473 L51.9982584,33.473 L52.8723917,28.5133743 L51.2051811,28.5177485 Z" id="Fill-15"></path>
                </g>
            </g>
        </g>
    </g>
</svg>