<svg id="Layer_1" data-name="Layer 1" xmlns="http://www.w3.org/2000/svg" viewBox="0 0 141.73 141.73"><defs><style>.cls-1{fill:#306fc5;}.cls-2{fill:#fff;}</style></defs><title>amex</title><path class="cls-1" d="M128.44,103.72a6.91,6.91,0,0,1-6.91,6.91H20.2a6.91,6.91,0,0,1-6.91-6.91V37.9a6.91,6.91,0,0,1,6.91-6.79H121.53A6.91,6.91,0,0,1,128.44,38h0Z"/><polygon class="cls-2" points="30.06 62.89 33.51 62.89 31.79 58.51 30.06 62.89"/><polygon class="cls-2" points="48.37 77.58 48.37 79.61 54.15 79.61 54.15 81.79 48.37 81.79 48.37 84.14 54.77 84.14 57.74 80.87 54.93 77.58 48.37 77.58"/><polygon class="cls-2" points="93.55 58.51 91.68 62.89 95.28 62.89 93.55 58.51"/><polygon class="cls-2" points="65.11 85.41 65.11 76.47 61.03 80.87 65.11 85.41"/><path class="cls-2" d="M72.75,79A1.57,1.57,0,0,0,71,77.58H67.76v2.81h3.43C72.13,80.39,72.75,80,72.75,79Z"/><path class="cls-2" d="M83.72,80a1.27,1.27,0,0,0,.46-1.11.85.85,0,0,0-.46-1.08,3,3,0,0,0-1.34-.12H79.32V80.2h3.06A3.5,3.5,0,0,0,83.72,80Z"/><path class="cls-2" d="M106.22,54.44v1.89l-.92-1.89H97.92v1.89L97,54.44H87a9.51,9.51,0,0,0-4.38.94v-.94H75.47v.94a4.47,4.47,0,0,0-3-.94H47.42L45.7,58.35,44,54.44H36v1.89l-.76-1.89H28.33l-3.11,7.35-3.59,8v.16h8.06v-.16l.94-2.3h2l.94,2.49h9.05V68l.78,1.87H48L48.83,68v1.87H70.57V65.86h.3c.3,0,.3,0,.3.46v3.45H82.38v-.94a9.53,9.53,0,0,0,4.24.94h4.61l.94-2.51h2.19l.94,2.51h9.07v-2.3l1.4,2.3h7.35V54.44Zm-53,13.13H50.72V59l-.16.37h0l-3.64,8.22h-2.3L40.93,59v8.59H35.54l-1.08-2.3H29.14L28,67.56H25.29L29.9,56.62h3.91l4.4,10.48V56.62h4.12v.16h0l2,4.28,1.4,3.22v-.16l3.13-7.51h4.21V67.56ZM64,59H57.9v2H64v2.3H57.9v2.19H64v2.3H55.21V56.62H64V59ZM75.1,63h0l.16.21A3,3,0,0,1,75.82,65h0v2.44h-2.3V66.23A3.78,3.78,0,0,0,73.05,64a1.87,1.87,0,0,0-.46-.32,3.48,3.48,0,0,0-1.43-.14H68.38v3.89H65.73V56.62h5.94a5.73,5.73,0,0,1,3.11.48A2.6,2.6,0,0,1,76,59.41a3.09,3.09,0,0,1-1.89,2.88,2.14,2.14,0,0,1,1,.71Zm5.27,4.61h-2.6v-11h2.65Zm30.49,0h-3.39l-5-8.31V66.2h0v1.43h-5.3l-.94-2.3H90.74l-.94,2.49h-3a5.46,5.46,0,0,1-3.75-1.24,5.55,5.55,0,0,1-1.4-4.21,6.54,6.54,0,0,1,1.4-4.4A5,5,0,0,1,87,56.72H89.5V59H87a2.9,2.9,0,0,0-2,.62,3.64,3.64,0,0,0-.78,2.51A3.39,3.39,0,0,0,85,64.8a2.3,2.3,0,0,0,1.87.62h1.11l3.66-8.64h3.91l4.38,10.48V56.78h3.91l4.61,7.67V56.78h2.65V67.56Z"/><path class="cls-2" d="M72.92,61.18l.14-.16a1.68,1.68,0,0,0,.21-1.17.35.35,0,0,0,0-.16h0a.85.85,0,0,0-.48-.53A2.92,2.92,0,0,0,71.53,59H68.38v2.6h3.13a2.92,2.92,0,0,0,1.24-.16h.14Z"/><path class="cls-2" d="M120.15,83.22a6.15,6.15,0,0,0-.78-3V73.11h0v-.46h-7.55a4.44,4.44,0,0,0-2.14.92v-.92h-7.21a5,5,0,0,0-3.11.92v-.92H86.53v.92a6.06,6.06,0,0,0-3.45-.92H74.64v.92A6,6,0,0,0,71,72.65H61.65L59.47,75l-2-2.3H43.37V88.43H57.19l2.3-2.3,2,2.3h8.77v-3.5h.64a9.72,9.72,0,0,0,3.59-.46v4.21h7V84.63h.32c.46,0,.46,0,.46.46v3.59h21.3a6,6,0,0,0,3.59-.94v.94h6.72a7.07,7.07,0,0,0,3.75-.78,5.23,5.23,0,0,0,2.49-4.21.39.39,0,0,1,0-.16h0A1.43,1.43,0,0,0,120.15,83.22Zm-49.28-.9H67.76v4.05H62.62l-3-3.43h0l-.14-.16-3.43,3.59H46v-11H56.17l2.79,3,.58.64h0l3.36-3.68h8.29a4.08,4.08,0,0,1,4.1,2,4,4,0,0,1,.14,1.11C75.47,81.66,73.17,82.32,70.87,82.32Zm15.64-.16a3.66,3.66,0,0,1,.46,2v2.19H84.34V85a3.43,3.43,0,0,0-.48-2.19c-.3-.46-.92-.46-1.87-.46H79.18v4.05H76.51V75.23h5.87a6.13,6.13,0,0,1,3.13.48A2.74,2.74,0,0,1,87,78.2a3.09,3.09,0,0,1-1.87,3,2.67,2.67,0,0,1,1.4.94Zm10.78-4.61H91.2v2h6v2.19h-6V84h6.1v2.3H88.55v-11H97.3Zm6.59,8.75h-5V84h5a1.36,1.36,0,0,0,1.08-.3,1.11,1.11,0,0,0,0-1.56h0a1.29,1.29,0,0,0-.94-.32c-2.49-.14-5.46,0-5.46-3.43,0-1.57.92-3.29,3.75-3.29h5.16v2.63h-4.86a2.3,2.3,0,0,0-1.08.16c-.32.14-.32.46-.32.78s.32.62.62.78a2.3,2.3,0,0,0,.94.14h1.4a4,4,0,0,1,3,.94,3.25,3.25,0,0,1,.78,2.3c0,2.42-1.4,3.5-4.05,3.5Zm13.43-1.08A4.61,4.61,0,0,1,114,86.31h-5V84h5a1.34,1.34,0,0,0,1.08-.3,1.11,1.11,0,0,0,0-1.56h0a1.24,1.24,0,0,0-.92-.32c-2.51-.14-5.48,0-5.48-3.43a3.2,3.2,0,0,1,2.95-3.22,4.38,4.38,0,0,1,.81,0h5.16v2.56H112.8a2.3,2.3,0,0,0-1.11.16,1.13,1.13,0,0,0-.32.78c0,.46.16.62.64.78a2.14,2.14,0,0,0,.92.14h1.4a5,5,0,0,1,1.68.25,3.39,3.39,0,0,1,2.3,2.49,3.82,3.82,0,0,1,0,.55,3.11,3.11,0,0,1-1,2.37Z"/></svg>