<svg id="Layer_1" data-name="Layer 1" xmlns="http://www.w3.org/2000/svg" viewBox="0 0 141.73 141.73"><defs><style>.cls-1{fill:#6c6bbd;}.cls-2{fill:#d32011;}.cls-3{fill:#0099df;}.cls-4{fill:#110f0d;}</style></defs><title>maestro</title><polygon class="cls-1" points="86.96 91.11 54.78 91.11 54.78 33.28 86.96 33.28 86.96 91.11"/><path class="cls-2" d="M56.82,62.2a36.72,36.72,0,0,1,14-28.91,36.78,36.78,0,1,0,0,57.83,36.72,36.72,0,0,1-14-28.91"/><path class="cls-3" d="M130.37,62.2a36.78,36.78,0,0,1-59.5,28.91,36.78,36.78,0,0,0,0-57.83,36.78,36.78,0,0,1,59.5,28.91"/><path class="cls-4" d="M97.84,107.45a4.53,4.53,0,0,1,1.51.27l-.65,2a3.44,3.44,0,0,0-1.33-.25c-1.39,0-2.08.9-2.08,2.51v5.48H93.16V107.7h2.1v1.19a2.88,2.88,0,0,1,2.57-1.43ZM90,109.64H86.52v4.41c0,1,.35,1.63,1.41,1.63a3.92,3.92,0,0,0,1.88-.55l.61,1.82a5,5,0,0,1-2.65.76c-2.51,0-3.39-1.35-3.39-3.62v-4.45h-2V107.7h2v-3h2.14v3H90v1.94ZM62.8,111.72a2.52,2.52,0,0,1,2.6-2.37,2.43,2.43,0,0,1,2.47,2.37Zm7.27.86c0-3-1.9-5.13-4.64-5.13a5.13,5.13,0,0,0,.14,10.25,5.93,5.93,0,0,0,4-1.37l-1-1.57a4.64,4.64,0,0,1-2.84,1,2.71,2.71,0,0,1-2.92-2.39H70c0-.27,0-.53,0-.82Zm9.33-2.39a6.26,6.26,0,0,0-3-.84c-1.16,0-1.86.43-1.86,1.15s.73.84,1.65,1l1,.14c2.13.31,3.41,1.21,3.41,2.92s-1.63,3.19-4.45,3.19a7,7,0,0,1-4.23-1.27l1-1.66a5.21,5.21,0,0,0,3.25,1c1.45,0,2.23-.43,2.23-1.19,0-.55-.55-.86-1.72-1l-1-.14c-2.19-.31-3.37-1.29-3.37-2.88,0-1.94,1.59-3.13,4.07-3.13a7.3,7.3,0,0,1,4,1l-.92,1.72Zm26.2-.72a3.22,3.22,0,0,0-1.22.23,2.92,2.92,0,0,0-1,.65,3,3,0,0,0-.65,1,3.59,3.59,0,0,0,0,2.55,3,3,0,0,0,.65,1,2.92,2.92,0,0,0,1,.65,3.35,3.35,0,0,0,2.44,0,2.92,2.92,0,0,0,1-.65,3,3,0,0,0,.65-1,3.59,3.59,0,0,0,0-2.55,3,3,0,0,0-.65-1,2.92,2.92,0,0,0-1-.65,3.21,3.21,0,0,0-1.22-.23Zm0-2a5.5,5.5,0,0,1,2.1.4,5.11,5.11,0,0,1,1.67,1.08,5,5,0,0,1,1.11,1.63,5.45,5.45,0,0,1,0,4.1,5,5,0,0,1-1.11,1.63,5.15,5.15,0,0,1-1.67,1.08,5.83,5.83,0,0,1-4.21,0,5.09,5.09,0,0,1-1.67-1.08,5,5,0,0,1-1.1-1.63,5.45,5.45,0,0,1,0-4.1,5,5,0,0,1,2.77-2.72,5.5,5.5,0,0,1,2.1-.4Zm-55.22,5.13a3,3,0,1,1,3,3.12,2.93,2.93,0,0,1-3-3.12Zm7.91,0V107.7H56.17v1.19a3.7,3.7,0,0,0-3.08-1.43,5.13,5.13,0,0,0,0,10.26,3.7,3.7,0,0,0,3.08-1.43v1.19h2.12Zm-12,4.88v-6.13a3.64,3.64,0,0,0-3.84-3.88,3.78,3.78,0,0,0-3.43,1.74,3.59,3.59,0,0,0-3.23-1.74A3.23,3.23,0,0,0,33,108.9v-1.2H30.84v9.76H33v-5.41a2.28,2.28,0,0,1,2.39-2.6c1.41,0,2.13.92,2.13,2.57v5.43h2.14v-5.41a2.3,2.3,0,0,1,2.39-2.6c1.45,0,2.15.92,2.15,2.57v5.43Z"/></svg>