<svg id="Layer_1" data-name="Layer 1" xmlns="http://www.w3.org/2000/svg" viewBox="0 0 141.73 141.73"><defs><style>.cls-1{fill:#ff5f00;}.cls-2{fill:#eb001b;}.cls-3{fill:#f79e1b;}</style></defs><title>mastercard</title><path d="M33,116.83V110.7a3.6,3.6,0,0,0-3.88-3.88,4,4,0,0,0-3.47,1.74,3.57,3.57,0,0,0-3.27-1.74,3.3,3.3,0,0,0-2.86,1.43V107H17.39v9.81h2.15v-5.41c0-1.74.92-2.55,2.35-2.55s2.15.92,2.15,2.55v5.41h2.15v-5.41a2.26,2.26,0,0,1,2.35-2.55c1.43,0,2.15.92,2.15,2.55v5.41ZM64.79,107H61.32v-3H59.17v3H57.23V109h1.94v4.49c0,2.25.92,3.58,3.37,3.58a5.71,5.71,0,0,0,2.66-.72l-.61-1.84a3.36,3.36,0,0,1-1.84.51c-1,0-1.43-.61-1.43-1.63V109h3.47V107Zm18.18-.2a2.88,2.88,0,0,0-2.55,1.43V107H78.27v9.81h2.15v-5.52c0-1.63.72-2.55,2-2.55a6,6,0,0,1,1.33.2l.61-2a6.74,6.74,0,0,0-1.43-.1Zm-27.48,1a7,7,0,0,0-4-1c-2.45,0-4.09,1.23-4.09,3.17,0,1.63,1.23,2.55,3.37,2.86l1,.1c1.12.2,1.74.51,1.74,1,0,.72-.82,1.23-2.25,1.23a5.64,5.64,0,0,1-3.27-1l-1,1.63A7.22,7.22,0,0,0,51.2,117c2.86,0,4.49-1.33,4.49-3.17s-1.33-2.66-3.37-3l-1-.1c-.92-.1-1.63-.31-1.63-.92s.72-1.12,1.84-1.12a7.36,7.36,0,0,1,3.06.82l.92-1.74Zm57-1a2.88,2.88,0,0,0-2.55,1.43V107h-2.15v9.81h2.15v-5.52c0-1.63.72-2.55,2-2.55a6,6,0,0,1,1.33.2l.61-2a6.74,6.74,0,0,0-1.43-.1Zm-27.38,5.11A4.91,4.91,0,0,0,90.33,117a5.08,5.08,0,0,0,3.47-1.12l-1-1.74a4.13,4.13,0,0,1-2.55.92,2.9,2.9,0,0,1-3-3.17,3,3,0,0,1,3-3.17,4.13,4.13,0,0,1,2.55.92l1-1.74a5.08,5.08,0,0,0-3.47-1.12,4.91,4.91,0,0,0-5.21,5.11Zm19.82,0V107h-2.15v1.23a3.69,3.69,0,0,0-3.06-1.43,5.11,5.11,0,0,0,0,10.22,3.44,3.44,0,0,0,3.06-1.43v1.23h2.15Zm-7.87,0a3,3,0,1,1,5.92,0,3,3,0,1,1-5.92,0Zm-25.64-5.11a5.11,5.11,0,0,0,.1,10.22,6.25,6.25,0,0,0,4-1.33l-1-1.53a4.88,4.88,0,0,1-2.86,1,2.76,2.76,0,0,1-3-2.35h7.25V112c.1-3.17-1.74-5.21-4.49-5.21Zm0,1.84A2.39,2.39,0,0,1,73.88,111H68.77a2.59,2.59,0,0,1,2.66-2.35Zm53.22,3.27v-8.78H122.5v5.11a3.69,3.69,0,0,0-3.06-1.43,5.11,5.11,0,0,0,0,10.22,3.44,3.44,0,0,0,3.06-1.43v1.23h2.15Zm-7.87,0a3,3,0,1,1,5.92,0,3,3,0,1,1-5.92,0Zm-71.71,0V107H42.93v1.23a3.69,3.69,0,0,0-3.06-1.43,5.11,5.11,0,0,0,0,10.22,3.44,3.44,0,0,0,3.06-1.43v1.23h2.15Zm-8,0a3,3,0,1,1,5.92,0,3,3,0,1,1-5.92,0Z"/><rect class="cls-1" x="54.78" y="32.56" width="32.18" height="57.82"/><path class="cls-2" d="M56.82,61.47a36.87,36.87,0,0,1,14-28.91,36.77,36.77,0,1,0,0,57.82A36.72,36.72,0,0,1,56.82,61.47Z"/><path class="cls-3" d="M130.37,61.47A36.74,36.74,0,0,1,70.92,90.38a36.86,36.86,0,0,0,0-57.82,36.74,36.74,0,0,1,59.45,28.91Z"/></svg>