<svg id="Layer_1" data-name="Layer 1" xmlns="http://www.w3.org/2000/svg" viewBox="0 0 50 40"><defs><style>.cls-1{fill:#33404a;}.cls-2{fill:#04aeba;}</style></defs><title>card-troy</title><path class="cls-1" d="M31.44,31.53c.2-.9.3-1.9.5-2.8.2-1.1.5-1.39,1.69-1.49h1.8a2.2,2.2,0,0,0,2.09-2.9c-1-3.69-2.09-7.48-3.09-11.18a1.62,1.62,0,0,1-.1-1h4.19c.8,0,1.1.59,1.2,1.29.3,2.3.7,4.59,1.1,6.89a1.74,1.74,0,0,0,.6-1.1c.8-1.89,1.59-3.69,2.39-5.59a2.27,2.27,0,0,1,2.5-1.59c1.19.1,2.49,0,3.69,0v.2a2.5,2.5,0,0,0-.7,1.09C46.91,18,44.41,22.54,42,27a7.84,7.84,0,0,1-4.69,4.19c-.1,0-.3,0-.3.2C35.13,31.53,33.23,31.53,31.44,31.53Z"/><path class="cls-1" d="M6.69,8.47c1.29,1.1.3,2.3.4,3.7H9.68c0,1.19-.4,2.29-.5,3.39-.9.3-1.79,0-2.79.2-.3,1.5-.6,3-.8,4.49-.1.8.4,1.2,1.1,1.4.4.1.8.1,1.29.2-.2,1.29-.4,2.59-.69,3.79a6.46,6.46,0,0,1-3.1-.2c-2.39-.6-3.39-2-3.09-4.39.2-1.7.6-3.4.9-5.19-.7-.3-1.4,0-2-.2v-.3a1.45,1.45,0,0,0,.2-.7c.1-.8.3-1.7.4-2.49.7,0,1.3-.1,2.09-.1.1-1.2.3-2.4.5-3.6Z"/><path class="cls-1" d="M13.47,25.54H9c.8-4.39,1.6-8.88,2.3-13.37h2.39c1.4,0,1.8.59,1.6,1.89,0,.2-.2.4,0,.7,1.3-1.7,2.69-2.89,5.09-2.69-.3,1.49-.5,3-.8,4.39h-1.2A4,4,0,0,0,14.47,20C14.17,21.75,13.87,23.64,13.47,25.54Z"/><path class="cls-2" d="M29.24,12.47c3.2.69,5.29,4.09,4.69,7.68a6.61,6.61,0,0,1-7,5.49,27.29,27.29,0,0,1,.59-3.89c.3-.1.5-.2.8-.3a2.65,2.65,0,0,0,.8-4.39,1.67,1.67,0,0,1-.5-1.6C28.84,14.36,29,13.46,29.24,12.47Z"/><path class="cls-2" d="M27.54,12.17c0,1.29-.39,2.49-.49,3.79-.2.3-.5.3-.7.4a2.7,2.7,0,0,0-.9,4.49,1.5,1.5,0,0,1,.5,1.5c-.2,1-.4,2-.5,2.89-2.8-.2-5.09-3.59-4.79-7.19A6.44,6.44,0,0,1,27.54,12.17Z"/></svg>