<svg id="Layer_1" data-name="Layer 1" xmlns="http://www.w3.org/2000/svg" viewBox="0 0 141.73 141.73"><defs><style>.cls-1{fill:#0066b3;}.cls-2{fill:#faa634;}.cls-3{fill:none;}</style></defs><title>visa</title><polygon class="cls-1" points="61.44 93.09 49.88 93.09 57.1 48.67 68.67 48.67 61.44 93.09"/><path class="cls-1" d="M40.15,48.67l-11,30.55-1.3-6.58h0l-3.89-20s-.47-4-5.49-4H.21L0,49.42A43.2,43.2,0,0,1,12.1,54.5l10,38.59h12l18.4-44.42Z"/><path class="cls-1" d="M131.11,93.09h10.62l-9.26-44.42h-9.3c-4.29,0-5.34,3.31-5.34,3.31L100.59,93.09h12.05l2.41-6.6h14.7ZM118.39,77.38l6.08-16.62,3.42,16.62Z"/><path class="cls-1" d="M101.49,59.35l1.65-9.54a33.38,33.38,0,0,0-10.4-1.94c-5.74,0-19.37,2.51-19.37,14.71,0,11.48,16,11.62,16,17.65S75,85.18,70.29,81.37l-1.72,10a32.39,32.39,0,0,0,13.06,2.51c7.89,0,19.8-4.09,19.8-15.21C101.42,67.1,85.28,66,85.28,61S96.54,56.63,101.49,59.35Z"/><path class="cls-2" d="M27.82,72.65l-3.89-20s-.47-4-5.49-4H.21L0,49.42A44.83,44.83,0,0,1,17.17,58,34.65,34.65,0,0,1,27.82,72.65Z"/><rect class="cls-3" width="141.73" height="141.73"/></svg>