<svg id="Layer_1" data-name="Layer 1" xmlns="http://www.w3.org/2000/svg" viewBox="0 0 141.73 141.73"><defs><style>.cls-1{fill:#1a1f71;}</style></defs><title>visaelectron</title><polygon class="cls-1" points="80.33 106.04 84.99 106.04 84.99 104.75 80.33 104.75 80.33 100.95 85.28 100.95 85.28 99.64 78.76 99.64 78.76 111.68 85.55 111.68 85.55 110.38 80.33 110.38 80.33 106.04"/><rect class="cls-1" x="87.95" y="99" width="1.57" height="12.68"/><polygon class="cls-1" points="58.83 49.48 49.35 93.83 60.82 93.83 70.31 49.48 58.83 49.48"/><path class="cls-1" d="M101.43,79.35c0-11.7-16.18-12.35-16.08-17.58,0-1.59,1.55-3.28,4.87-3.71a21.67,21.67,0,0,1,11.32,2l2-9.41a30.93,30.93,0,0,0-10.73-2c-11.34,0-19.32,6-19.39,14.66-.07,6.39,5.7,9.95,10,12.07s6,3.57,6,5.51c0,3-3.57,4.29-6.86,4.34a24,24,0,0,1-11.78-2.8L68.7,92.17a34.83,34.83,0,0,0,12.76,2.35C93.51,94.53,101.4,88.57,101.43,79.35Z"/><path class="cls-1" d="M41.86,49.48,29.92,79.67,25.09,54a5.35,5.35,0,0,0-5.29-4.52H.27L0,50.77a48,48,0,0,1,11.32,3.77c1.69.92,2.17,1.72,2.72,3.89l9.15,35.4H35.32L53.91,49.48Z"/><path class="cls-1" d="M137.66,102.86a3.2,3.2,0,0,0-2.86,1.61h0l-.09-1.43h-1.39c.05.71.07,1.43.07,2.34v6.3h1.57v-5.2a2.23,2.23,0,0,1,.11-.73,2.27,2.27,0,0,1,2.11-1.61c1.48,0,2,1.16,2,2.55v5h1.57v-5.14C140.71,103.57,138.86,102.86,137.66,102.86Z"/><path class="cls-1" d="M96,102.86c-2.52,0-4.05,2-4.05,4.64a4,4,0,0,0,4.25,4.38,7.06,7.06,0,0,0,2.89-.55l-.29-1.13a5.64,5.64,0,0,1-2.39.45,2.76,2.76,0,0,1-3-3h6.07a3.77,3.77,0,0,0,.05-.73C99.62,105.32,98.88,102.86,96,102.86Zm-2.54,3.66A2.58,2.58,0,0,1,95.92,104a2.23,2.23,0,0,1,2.18,2.54Z"/><path class="cls-1" d="M126.79,102.86a4.22,4.22,0,0,0-4.29,4.57,4.12,4.12,0,0,0,4.14,4.45,4.23,4.23,0,0,0,4.3-4.59A4.09,4.09,0,0,0,126.79,102.86Zm-.07,7.84c-1.54,0-2.61-1.43-2.61-3.32,0-1.63.8-3.34,2.64-3.34s2.59,1.84,2.59,3.3C129.34,109.29,128.21,110.7,126.71,110.7Z"/><path class="cls-1" d="M132.73,49.48h-9.79a5.22,5.22,0,0,0-4.89,3.25l-17.22,41.1h12l2.39-6.62H130l1.39,6.62H142ZM118.58,78.12l6-16.66,3.47,16.66Z"/><path class="cls-1" d="M118.45,104.75h-.05l-.07-1.71h-1.38c.05.8.07,1.68.07,2.7v5.95h1.57v-4.61a4.74,4.74,0,0,1,.05-.73,2.19,2.19,0,0,1,2.11-2,2.42,2.42,0,0,1,.54,0v-1.48a3.32,3.32,0,0,0-.43,0A2.61,2.61,0,0,0,118.45,104.75Z"/><path class="cls-1" d="M106,104.11a3.85,3.85,0,0,1,1.82.41l.36-1.2a4.94,4.94,0,0,0-2.18-.46,4.41,4.41,0,0,0-4.64,4.61,4.11,4.11,0,0,0,4.3,4.41,6.07,6.07,0,0,0,2.48-.5l-.27-1.18a4.49,4.49,0,0,1-1.93.41,3,3,0,0,1-3-3.23A3,3,0,0,1,106,104.11Z"/><path class="cls-1" d="M112.57,101l-1.54.46V103H109.7v1.2H111v4.72a3.38,3.38,0,0,0,.61,2.27,2.24,2.24,0,0,0,1.7.66,4.29,4.29,0,0,0,1.39-.21l-.07-1.2a2.9,2.9,0,0,1-.91.11c-.87,0-1.18-.61-1.18-1.68v-4.66h2.25V103h-2.25Z"/></svg>