<svg xmlns="http://www.w3.org/2000/svg" width="22" height="22" viewBox="0 0 22 22">
    <g fill="none" fill-rule="evenodd">
        <circle cx="11" cy="11" r="11" fill="#161D4C"/>
        <path fill="#FFF" fill-rule="nonzero" d="M15.793 14.807l-.986.986a.293.293 0 0 1-.414 0L11 12.4l-3.393 3.393a.293.293 0 0 1-.414 0l-.986-.986a.293.293 0 0 1 0-.414L9.6 11 6.207 7.607a.293.293 0 0 1 0-.414l.986-.986a.293.293 0 0 1 .414 0L11 9.6l3.393-3.393a.293.293 0 0 1 .414 0l.986.986c.114.114.114.3 0 .414L12.4 11l3.393 3.393c.114.114.114.3 0 .414z"/>
    </g>
</svg>
