<?xml version="1.0" encoding="UTF-8"?>
<svg width="30px" height="30px" viewBox="0 0 30 30" version="1.1" xmlns="http://www.w3.org/2000/svg" xmlns:xlink="http://www.w3.org/1999/xlink">
    <!-- Generator: sketchtool 52.4 (67378) - http://www.bohemiancoding.com/sketch -->
    <title>9862966A-BE6F-49C0-9674-0BF5C3239E98</title>
    <desc>Created with sketchtool.</desc>
    <g id="WEB" stroke="none" stroke-width="1" fill="none" fill-rule="evenodd">
        <g id="DETAY-SAYFA" transform="translate(-968.000000, -3504.000000)">
            <g id="Group-14" transform="translate(0.000000, 3065.000000)">
                <g id="Group-61" transform="translate(0.000000, 278.000000)">
                    <g id="Group-57">
                        <g id="Group-56">
                            <g id="Group-4" transform="translate(888.000000, 161.000000)">
                                <g id="Facebook" transform="translate(80.000000, 0.000000)">
                                    <circle id="Oval-1" fill="#3B5998" cx="15" cy="15" r="15"></circle>
                                    <path d="M12.9380952,22.3012198 L15.6700952,22.3012198 L15.6700952,14.7971375 L17.7195952,14.7971375 L18.1249286,12.4523829 L15.6700952,12.4523829 L15.6700952,10.753295 C15.6700952,10.2055627 16.0242619,9.63046889 16.5304286,9.63046889 L17.9255952,9.63046889 L17.9255952,7.28571429 L16.2157619,7.28571429 L16.2157619,7.29622514 C13.5404286,7.39332541 12.9907619,8.94275873 12.9430952,10.5702727 L12.9380952,10.5702727 L12.9380952,12.4523829 L11.5714286,12.4523829 L11.5714286,14.7971375 L12.9380952,14.7971375 L12.9380952,22.3012198 Z" id="Fill-4" fill="#FFFFFF"></path>
                                </g>
                            </g>
                        </g>
                    </g>
                </g>
            </g>
        </g>
    </g>
</svg>