<?xml version="1.0" encoding="utf-8"?>
<!-- Generator: Adobe Illustrator 21.0.2, SVG Export Plug-In . SVG Version: 6.00 Build 0)  -->
<svg version="1.1" id="Layer_1" xmlns="http://www.w3.org/2000/svg" xmlns:xlink="http://www.w3.org/1999/xlink" x="0px" y="0px"
	 viewBox="0 0 42 42" style="enable-background:new 0 0 42 42;" xml:space="preserve">
<style type="text/css">
	.st0{fill:#2878B5;}
	.st1{fill:#FFFFFF;}
</style>
<circle id="Oval-1" class="st0" cx="21" cy="21" r="21"/>
<g>
	<path class="st1" d="M17.3,14.9h5.1v2.6h0.1c0.7-1.3,2.5-2.6,5.1-2.6c5.4,0,6.4,3.4,6.4,7.8v8.9h-5.4v-7.9c0-1.9,0-4.3-2.8-4.3
		c-2.8,0-3.2,2.1-3.2,4.2v8.1h-5.4V14.9z"/>
	<path class="st1" d="M8,14.9h5.6v16.7H8V14.9z"/>
	<path class="st1" d="M13.6,10.3c0,1.5-1.2,2.8-2.8,2.8S8,11.8,8,10.3s1.2-2.8,2.8-2.8S13.6,8.7,13.6,10.3z"/>
</g>
</svg>
