<?xml version="1.0" encoding="UTF-8"?>
<svg width="42px" height="42px" viewBox="0 0 42 42" version="1.1" xmlns="http://www.w3.org/2000/svg" xmlns:xlink="http://www.w3.org/1999/xlink">
    <!-- Generator: sketchtool 52.4 (67378) - http://www.bohemiancoding.com/sketch -->
    <title>6C96F656-1F71-478A-BD39-F19E4F3E8E35</title>
    <desc>Created with sketchtool.</desc>
    <g id="WEB" stroke="none" stroke-width="1" fill="none" fill-rule="evenodd">
        <g id="BLOG-DETAY" transform="translate(-215.000000, -771.000000)" fill="#000000">
            <g id="Group-7" transform="translate(215.000000, 585.000000)">
                <g id="copy-link" transform="translate(0.000000, 186.000000)">
                    <path d="M31.44,18.2271429 L26.0100429,23.6614286 C23.8971429,25.7743286 20.4557143,25.7743286 18.3385714,23.6614286 C18.2828571,23.6057143 18.2271429,23.5457571 18.1714286,23.4857143 C18.1414286,23.4600429 18.1071429,23.43 18.0814286,23.4 C17.9957143,23.3142857 17.9271429,23.22 17.8671429,23.1214286 C17.8586143,23.1128571 17.8542857,23.1042857 17.8457143,23.0957571 L17.85,23.0914286 C17.5885714,22.5985714 17.6657571,21.9771429 18.0814286,21.5657143 C18.4971429,21.15 19.1271429,21.0771429 19.62,21.3428571 C19.6542857,21.3085714 19.9928571,21.6471429 20.1771429,21.8271429 C21.2828571,22.9328571 23.0614286,22.9414286 24.1671857,21.8357143 L29.6100429,16.3928571 C30.7157571,15.2871429 30.7157571,13.5 29.6100429,12.3942857 C28.5042857,11.2885714 26.7171857,11.2885714 25.6114286,12.3942857 L22.3285714,15.6685714 C21.1971429,15.1157143 19.8557143,15.0942857 18.7071429,15.6214286 L23.7685714,10.56 C25.8814714,8.44714286 29.3229,8.44714286 31.44,10.56 C33.5571429,12.6728571 33.5571429,16.1142857 31.44,18.2271429 Z M18.2271429,31.44 C16.1142857,33.5529 12.6729,33.5529 10.5557143,31.44 C8.44285714,29.3271429 8.44285714,25.8857143 10.5557143,23.7728571 L15.99,18.3385714 C18.1028571,16.2257143 21.5443286,16.2257143 23.6614286,18.3385714 C23.7171857,18.3942857 23.7729,18.4542857 23.8285714,18.5142857 C23.8586143,18.54 23.8928571,18.57 23.9185714,18.6 C24.0042857,18.6857143 24.0729,18.78 24.1328571,18.8785714 C24.1414286,18.8871429 24.1457571,18.8957143 24.1542857,18.9042857 L24.15,18.9085714 C24.4114286,19.4014286 24.3342857,20.0228571 23.9185714,20.4342857 C23.5029,20.85 22.8729,20.9271429 22.3800429,20.6571429 C22.3457571,20.6914286 22.0071429,20.3528571 21.8229,20.1728571 C20.7171429,19.0671429 18.9385714,19.0585714 17.8328571,20.1642857 L12.39,25.6071429 C11.2842857,26.7128571 11.2842857,28.5 12.39,29.6057143 C13.4957143,30.7114286 15.2828571,30.7114286 16.3885714,29.6057143 L19.6628571,26.3314714 C20.7985714,26.8886143 22.1357143,26.9057143 23.2842857,26.3785714 L18.2271429,31.44 Z M21,0 C9.40285714,0 0,9.40285714 0,21 C0,32.5971429 9.40285714,42 21,42 C32.5971429,42 42,32.5971429 42,21 C42,9.40285714 32.5971429,0 21,0 Z" id="Fill-1"></path>
                </g>
            </g>
        </g>
    </g>
</svg>