<?xml version="1.0" encoding="utf-8"?>
<!-- Generator: Adobe Illustrator 21.0.2, SVG Export Plug-In . SVG Version: 6.00 Build 0)  -->
<svg version="1.1" id="Layer_1" xmlns="http://www.w3.org/2000/svg" xmlns:xlink="http://www.w3.org/1999/xlink" x="0px" y="0px"
	 viewBox="0 0 30 30" style="enable-background:new 0 0 30 30;" xml:space="preserve">
<style type="text/css">
	.st0{fill:#2878B5;}
	.st1{fill:#FFFFFF;}
</style>
<circle id="Oval-1" class="st0" cx="15" cy="15" r="15"/>
<g>
	<path class="st1" d="M12.8,11.2h3v1.5h0.1c0.4-0.8,1.5-1.5,3-1.5c3.2,0,3.8,2,3.8,4.6v5.3h-3.2v-4.7c0-1.1,0-2.6-1.7-2.6
		c-1.7,0-1.9,1.3-1.9,2.5v4.8h-3.2L12.8,11.2L12.8,11.2z"/>
	<path class="st1" d="M7.3,11.2h3.3v10H7.3V11.2z"/>
	<path class="st1" d="M10.6,8.5c0,0.9-0.7,1.7-1.7,1.7S7.3,9.4,7.3,8.5S8,6.8,8.9,6.8S10.6,7.5,10.6,8.5z"/>
</g>
</svg>
