<svg id="Layer_1" data-name="Layer 1" xmlns="http://www.w3.org/2000/svg" viewBox="0 0 30 30"><defs><style>.cls-1{fill:#7bc5f8;}.cls-2{fill:#fff;}</style></defs><title>Artboard 1</title><rect class="cls-1" width="30" height="30" rx="15" ry="15"/><path class="cls-2" d="M24.66,8.9a2.8,2.8,0,0,1-.81.11V8.92A6.68,6.68,0,0,0,25.5,7.05c.06-.21,0-.28,0-.29l-1.37.58L23,7.86h0a4.56,4.56,0,0,0-3.32-1.37,4.06,4.06,0,0,0-4.3,3.76,5.58,5.58,0,0,0,.18,1.42c0,.11,0-.11,0,0a13.42,13.42,0,0,1-5.24-1.55c-3.44-1.74-3.66-3-3.66-3a4.7,4.7,0,0,0-.27,4,4.94,4.94,0,0,0,1.56,1.81h0a3.65,3.65,0,0,1-1.1-.18A2.44,2.44,0,0,1,6,12.38c-.34.82.34,2.28,1.5,3.33a6.17,6.17,0,0,0,1.92,1l-1.94.05c-.11,1.88,4,3,4,3h0a6.64,6.64,0,0,1-4.05,1.47,7.72,7.72,0,0,1-2.21-.32,10.55,10.55,0,0,0,7.2,2.58c7.25-.38,11.34-6.61,11.54-12.73h0A5.09,5.09,0,0,0,25,9.88,7.5,7.5,0,0,0,26.21,8.3S25.12,8.78,24.66,8.9Z"/><path class="cls-2" d="M25.49,6.76c0,.12,0,0,0,0Z"/></svg>