<?xml version="1.0" encoding="UTF-8"?>
<svg width="30px" height="30px" viewBox="0 0 30 30" version="1.1" xmlns="http://www.w3.org/2000/svg" xmlns:xlink="http://www.w3.org/1999/xlink">
    <!-- Generator: sketchtool 52.4 (67378) - http://www.bohemiancoding.com/sketch -->
    <title>CA1BCAC5-C377-41C9-8D86-19B9AE158C08</title>
    <desc>Created with sketchtool.</desc>
    <g id="WEB" stroke="none" stroke-width="1" fill="none" fill-rule="evenodd">
        <g id="DETAY-SAYFA" transform="translate(-928.000000, -3504.000000)">
            <g id="Group-14" transform="translate(0.000000, 3065.000000)">
                <g id="Group-61" transform="translate(0.000000, 278.000000)">
                    <g id="Group-57">
                        <g id="Group-56">
                            <g id="Group-4" transform="translate(888.000000, 161.000000)">
                                <g id="You-Tube" transform="translate(40.000000, 0.000000)">
                                    <circle id="Oval-1-Copy-2" fill="#FF0000" cx="15" cy="15" r="15"></circle>
                                    <g id="Group-13" transform="translate(6.428571, 9.000000)">
                                        <g id="Group-19">
                                            <path d="M16.7846419,1.88599609 C16.5874755,1.14363992 16.006638,0.558998043 15.2690254,0.360563601 C13.9321644,0 8.57142857,0 8.57142857,0 C8.57142857,0 3.21069276,0 1.8738317,0.360563601 C1.13626614,0.558998043 0.555381605,1.14363992 0.358215264,1.88599609 C0,3.23154599 0,6.03898239 0,6.03898239 C0,6.03898239 0,8.84637182 0.358215264,10.1919687 C0.555381605,10.9342779 1.13626614,11.5189667 1.8738317,11.7174012 C3.21069276,12.0779178 8.57142857,12.0779178 8.57142857,12.0779178 C8.57142857,12.0779178 13.9321644,12.0779178 15.2690254,11.7174012 C16.006638,11.5189667 16.5874755,10.9342779 16.7846419,10.1919687 C17.1428571,8.84637182 17.1428571,6.03898239 17.1428571,6.03898239 C17.1428571,6.03898239 17.1428571,3.23154599 16.7846419,1.88599609" id="Fill-1" fill="#FFFFFF"></path>
                                            <polygon id="Fill-4" fill="#FF0000" points="6.85714286 8.52638748 11.3376751 5.9775499 6.85714286 3.42857143"></polygon>
                                        </g>
                                    </g>
                                </g>
                            </g>
                        </g>
                    </g>
                </g>
            </g>
        </g>
    </g>
</svg>