<?xml version="1.0" encoding="UTF-8"?>
<svg width="55px" height="18px" viewBox="0 0 55 18" version="1.1" xmlns="http://www.w3.org/2000/svg" xmlns:xlink="http://www.w3.org/1999/xlink">
    <!-- Generator: sketchtool 53.2 (72643) - https://sketchapp.com -->
    <title>Cabrio</title>
    <desc></desc>
    <g id="WEB" stroke="none" stroke-width="1" fill="none" fill-rule="evenodd">
        <g id="Kasa-Tipi" transform="translate(-64.000000, -121.000000)" fill="#A2A5B7">
            <g id="Group" transform="translate(41.000000, 45.000000)">
                <g id="Group-21" transform="translate(23.000000, 76.000000)">
                    <path d="M45.9452194,9.39792273 C48.2326655,9.39792273 50.0876295,11.3153318 50.0876295,13.6806955 C50.0876295,16.04565 48.2326655,17.9630591 45.9452194,17.9630591 C43.6573777,17.9630591 41.8028094,16.04565 41.8028094,13.6806955 C41.8028094,11.3153318 43.6573777,9.39792273 45.9452194,9.39792273 M10.5905072,9.39792273 C12.8783489,9.39792273 14.7329173,11.3153318 14.7329173,13.6806955 C14.7329173,16.04565 12.8783489,17.9630591 10.5905072,17.9630591 C8.30266547,17.9630591 6.44809712,16.04565 6.44809712,13.6806955 C6.44809712,11.3153318 8.30266547,9.39792273 10.5905072,9.39792273 M4.30586691,15.5481955 C5.14234173,15.6218318 5.19140647,15.3579682 5.19932014,14.2988318 C5.20090288,14.0959227 5.2052554,13.8893318 5.2052554,13.6806955 C5.2052554,10.6055591 7.61615468,8.11255909 10.5905072,8.11255909 C13.5648597,8.11255909 15.975759,10.6055591 15.975759,13.6806955 C15.975759,14.1147409 15.9630971,14.5377409 15.9168022,14.9435591 C15.794536,16.0170136 16.0592482,16.0145591 16.8047158,16.1728773 L39.5248597,16.1728773 C40.6391043,16.1728773 40.8531691,16.4216045 40.6406871,14.9419227 C40.5821259,14.5369227 40.5599676,14.1143318 40.5599676,13.6806955 C40.5599676,10.6055591 42.9708669,8.11255909 45.9452194,8.11255909 C48.9195719,8.11255909 51.3304712,10.6055591 51.3304712,13.6806955 C51.3304712,13.9380136 51.3221619,14.1875591 51.3035647,14.4309682 C51.2208669,15.4995136 51.3625216,15.4144227 52.1519101,15.5293773 L53.3575576,15.4888773 C53.6756871,15.4778318 54.0373417,15.37065 54.2628813,15.1963773 C54.656982,14.8924227 54.7879532,14.4424227 54.8564065,13.6393773 C54.8892482,13.2560591 54.9173417,12.6628773 54.9264424,12.2685136 C54.9323777,12.0050591 54.9450396,11.3210591 54.8556151,11.14965 C54.7586727,10.96515 54.7471978,10.87065 54.4425216,10.8444682 C54.2518022,10.3707409 54.0543561,9.58855909 53.6373058,8.75401364 C53.2550755,7.98860455 52.7129892,7.39255909 51.4681691,7.07305909 C47.6193561,6.08633182 43.4021619,5.28901364 39.603205,4.87215 C36.4199317,2.93960455 34.1297158,1.81010455 30.8178453,0.203195455 C30.6128813,0.103786364 30.4522338,0.0866045455 30.3260108,0.291968182 L30.1550755,0.570559091 C29.9829532,0.850786364 30.1396439,0.856922727 30.4035647,0.989877273 C32.6736007,2.13328636 35.2613705,3.59415 36.4017302,4.53874091 C35.5874137,4.48392273 33.5579532,4.61728636 33.6010827,5.36019545 C33.6268022,5.79955909 33.9061547,6.33260455 33.795759,6.32769545 L24.6594281,5.92637727 C24.0888525,5.90142273 23.9923058,5.73328636 23.8890324,5.14542273 L23.7366942,4.27896818 C23.7165144,4.16319545 23.6314424,4.05437727 23.518277,4.06501364 L22.7838885,4.13333182 C22.670723,4.14355909 22.5955432,4.22946818 22.5975216,4.34728636 L22.614536,5.34096818 C22.6188885,5.60442273 22.3403273,5.74146818 22.1171619,5.73328636 C20.0038165,5.65719545 17.7986727,5.63265 15.591946,5.52669545 C14.9584568,5.49642273 14.7071978,4.87624091 14.6059029,4.37551364 C14.4895719,3.80074091 14.537054,3.90055909 14.0103993,3.81546818 L13.2186367,3.99546818 L12.4114424,4.02696818 C9.86680216,4.13660455 4.48946403,4.81078636 2.24316906,5.53528636 C1.46644245,5.78565 0.974607914,6.28719545 0.911694245,6.89960455 C0.759751799,8.37928636 0.662017986,9.62169545 0.580902878,11.0616955 C0.56744964,11.2989682 0.0103273381,11.2997864 0.00755755391,11.5272409 C-0.00273021588,12.4616045 -0.0723705036,14.2849227 0.536190647,14.8695136 C0.727701439,15.0536045 1.19104676,15.2012864 1.78021942,15.2937409 C2.52608273,15.4107409 3.47018345,15.4745591 4.30586691,15.5481955" id="Fill-19"></path>
                </g>
            </g>
        </g>
    </g>
</svg>