<?xml version="1.0" encoding="utf-8"?>
<!-- Generator: Adobe Illustrator 23.0.1, SVG Export Plug-In . SVG Version: 6.00 Build 0)  -->
<svg version="1.1" id="Layer_1" xmlns="http://www.w3.org/2000/svg" xmlns:xlink="http://www.w3.org/1999/xlink" x="0px" y="0px"
	 viewBox="0 0 302.7012329 256.9536133" style="enable-background:new 0 0 302.7012329 256.9536133;" xml:space="preserve">
<style type="text/css">
	.st0{fill:#8688A2;}
</style>
<g>
	<path class="st0" d="M265.4938049,123.360466c0-4.6694946-3.1129761-8.8201599-7.5230713-10.1172409l-30.8705597-9.8578186
		l-24.3851318-30.8705521c-2.0753326-2.594162-5.188324-4.1506577-8.5607452-4.1506577L44.9899025,68.6236191
		c-4.9289131,0-7.7824936,2.8535767-7.7824936,7.782486c0,7.5230789,0,15.0461502,0,22.5692291
		c0,17.8997269,0,35.5400314,0,53.4397659c0,3.6318359,1.8159142,5.966568,4.6694946,7.0042419
		c4.41008,1.5565033,8.3013229-0.778244,9.5984077-5.7071533c3.891243-14.7867432,18.9373932-23.6068878,34.5023727-18.1591492
		c8.0419083,2.8535767,13.7490692,9.8578186,16.0838165,17.8997345c1.297081,4.6694946,3.3724136,6.2259979,8.3013229,6.2259979
		c19.4562378,0,76.2684021,0,77.306076,0c3.372406,0,6.4854126-2.0753326,7.5230865-6.4854126
		c3.6318207-13.4896545,17.3808746-22.0503998,30.8705444-18.9373932
		c10.3766479,2.594162,16.8620605,9.0795746,19.7156372,19.4562225c1.037674,3.8912506,3.3724213,5.9665833,7.5230865,5.9665833
		c1.556488,0,3.1129913,0,4.6695099,0c4.6694946,0,7.5230713-3.1130066,7.5230713-7.7825012
		C265.4938049,146.9673615,265.4938049,132.6994629,265.4938049,123.360466z M167.9532623,103.1259918
		c-1.556488,0-3.6318359,0-3.6318359-1.297081V81.5944366c0-1.5565033,2.0753326-4.41008,3.6318359-4.41008h25.4228058
		c0.778244,0,1.556488,0.518837,2.0753174,1.297081l19.1968231,24.6445541H167.9532623z"/>
	<path class="st0" d="M77.1575317,140.2225342c-10.6360779,0-19.4562302,8.8201599-19.4562302,19.4562225
		s8.8201523,19.4562378,19.4562302,19.4562378s19.4562225-8.8201599,19.4562225-19.4562225
		C96.6137543,149.0426941,87.793602,140.2225342,77.1575317,140.2225342z"/>
	<path class="st0" d="M220.8742065,140.2225342c-10.6360626,0-19.4562378,8.8201599-19.4562378,19.4562225
		s8.5607605,19.4562378,19.4562378,19.4562378c10.6360626,0,19.4562225-8.8201599,19.4562225-19.4562225
		C240.0709991,149.0426941,231.5102692,140.2225342,220.8742065,140.2225342z"/>
</g>
</svg>
