<?xml version="1.0" encoding="UTF-8"?>
<svg width="54px" height="18px" viewBox="0 0 54 18" version="1.1" xmlns="http://www.w3.org/2000/svg" xmlns:xlink="http://www.w3.org/1999/xlink">
    <!-- Generator: sketchtool 53.2 (72643) - https://sketchapp.com -->
    <title>C31239BE-90EC-4F48-869C-B9EC41ECFB4C</title>
    <desc>Created with sketchtool.</desc>
    <g id="WEB" stroke="none" stroke-width="1" fill="none" fill-rule="evenodd">
        <g id="Kasa-Tipi" transform="translate(-64.000000, -181.000000)" fill="#A2A5B7">
            <g id="Group" transform="translate(41.000000, 45.000000)">
                <g id="Group-26" transform="translate(23.000000, 136.000000)">
                    <path d="M49.03404,13.6545702 C49.03404,15.8685702 47.15884,17.6635915 44.84644,17.6635915 C42.53364,17.6635915 40.65884,15.8685702 40.65884,13.6545702 C40.65884,11.4401872 42.53364,9.64516596 44.84644,9.64516596 C47.15884,9.64516596 49.03404,11.4401872 49.03404,13.6545702 Z M14.89364,13.6545702 C14.89364,15.8685702 13.01884,17.6635915 10.70604,17.6635915 C8.39324,17.6635915 6.51844,15.8685702 6.51844,13.6545702 C6.51844,11.4401872 8.39324,9.64516596 10.70604,9.64516596 C13.01884,9.64516596 14.89364,11.4401872 14.89364,13.6545702 Z M24.08884,6.3611234 C23.47284,6.33584681 23.34484,6.2171234 23.23644,5.64188936 C23.01564,4.47150638 22.73964,2.7756766 22.59324,1.8377617 C22.55284,1.57886809 22.54044,1.44750638 22.86644,1.45133617 L24.21284,1.54248511 C25.61484,1.5857617 27.64084,1.87874043 28.38724,2.11810213 C30.50884,2.82201702 32.87884,4.03222979 34.47564,5.16891064 C33.65244,5.11797447 32.32404,5.1696766 32.36764,5.86516596 C32.39364,6.27686809 32.67604,6.77550638 32.56444,6.77129362 L24.08884,6.3611234 Z M20.93044,6.30597447 L15.76204,6.07657021 C14.29004,6.01108085 14.56164,5.07891064 15.22804,4.41597447 C16.38044,3.26971915 19.26604,1.43831489 19.86564,1.45133617 L20.69244,1.46933617 C21.05324,1.4777617 21.10724,1.62635745 21.15764,1.90554894 C21.27324,2.54588936 21.40564,3.39916596 21.69764,5.69129362 C21.78924,6.41014468 21.76244,6.3431234 20.93044,6.30597447 Z M5.25564,14.4442723 C5.25404,14.1869106 5.26204,13.9230383 5.26204,13.6545702 C5.26204,10.7757191 7.69924,8.44184681 10.70604,8.44184681 C13.71284,8.44184681 16.15004,10.7757191 16.15004,13.6545702 C16.15004,14.0321872 16.13884,14.4006128 16.10004,14.7552511 C15.95604,16.0619745 15.84604,15.8766128 17.01324,16.0141021 L38.66084,16.0382298 C39.86964,15.9578043 39.74804,16.1902723 39.52364,15.061634 C39.43484,14.6139319 39.40244,14.1417191 39.40244,13.6545702 C39.40244,10.7757191 41.83964,8.44184681 44.84644,8.44184681 C47.85324,8.44184681 50.29004,10.7757191 50.29044,13.6545702 C50.29044,13.8334213 50.28524,14.0164851 50.27324,14.2010809 C50.19244,15.4614638 50.08604,15.2569532 51.27404,15.404783 L52.33964,15.3714638 C52.66124,15.3615064 53.02684,15.2366553 53.25484,15.0735064 C53.65324,14.7889532 53.78564,14.3676766 53.85484,13.6158894 C53.88804,13.2570383 53.91644,12.7017191 53.92564,12.3325277 C53.93164,12.0858894 53.94444,11.4455489 53.85404,11.2850809 C53.75604,11.1127404 53.74444,11.0238894 53.43644,10.9993787 C53.24364,10.5558894 53.04404,9.82363404 52.62244,9.04235745 C52.23604,8.32580426 51.68804,7.76780426 50.42964,7.46869787 C46.53884,6.54533617 42.27564,5.79852766 38.43524,5.40827234 C35.26204,3.97401702 32.21324,2.13457021 28.86844,1.11622979 C25.37484,0.0534638298 22.66324,0.299719149 18.91084,0.299719149 C17.49604,0.299719149 16.67444,0.869208511 15.63084,1.31308085 C14.50924,1.79027234 12.51484,2.83848511 10.90604,3.79095319 C10.49164,4.03644255 10.11604,4.31486809 9.28444,4.54733617 C8.15604,4.86329362 4.64844,5.31788936 2.26764,6.02908085 C1.48244,6.26346383 0.98524,6.73299574 0.92164,7.30631489 C0.76804,8.69154894 0.66924,9.85465532 0.58724,11.2031234 C0.57364,11.4248681 0.0104399998,11.425634 0.00763999985,11.6389532 C-0.00276000015,12.5136766 -0.0731600002,14.2202298 0.54204,14.7675064 C0.73564,14.9398468 1.20364,15.080017 1.79964,15.1646553 C2.47804,15.260783 3.31844,15.3216766 4.09564,15.3837191 C5.08164,15.4618468 5.26364,15.5568255 5.25564,14.4442723 Z" id="Fill-24"></path>
                </g>
            </g>
        </g>
    </g>
</svg>