<?xml version="1.0" encoding="utf-8"?>
<!-- Generator: Adobe Illustrator 23.0.6, SVG Export Plug-In . SVG Version: 6.00 Build 0)  -->
<svg version="1.1" id="Layer_1" xmlns="http://www.w3.org/2000/svg" xmlns:xlink="http://www.w3.org/1999/xlink" x="0px" y="0px"
	 viewBox="0 0 226.4 109.2" style="enable-background:new 0 0 226.4 109.2;" xml:space="preserve">
<style type="text/css">
	.st0{fill:#8688A2;}
</style>
<title>MPV</title>
<g>
	<path class="st0" d="M46.7,109.1c11.3,0,20.8-9.4,20.8-20.8s-9.4-20.8-20.8-20.8S26,77,26,88.4C26,99.7,35.4,109.1,46.7,109.1z"/>
	<path class="st0" d="M182.2,109.1c11.3,0,20.8-9.4,20.8-20.8s-9.4-20.8-20.8-20.8c-11.8,0-20.8,9.4-20.8,20.8
		S170.4,109.1,182.2,109.1z"/>
	<path class="st0" d="M226.1,69L226.1,69L226.1,69c-0.9-7.6-4.2-12.7-7.6-14.6c-12.7-9-26-15.1-40.1-18.9c-3.8-0.9-6.6-2.4-9.9-4.2
		c-31.2-20.8-58.1-34-143-30.7C17.5,1,10.4,6.2,8,13.8C3.3,28.9,0,45.9,0,64.3c0,8,2.8,16,9,21.7c2.4,2.4,4.7,4.2,8,5.7
		c0-0.9,0-1.9,0-3.3c0-17,13.7-30.2,30.2-30.2s30.2,13.7,30.2,30.2c0,2.4-0.5,4.2-0.9,6.6h76c-0.5-1.9-0.5-4.2-0.5-6.6
		c0-17,13.7-30.2,30.2-30.2s30.2,13.7,30.2,30.2c0,2.4,0,4.2-0.5,6.6h2.4c3.8,0,7.6-2.4,9-6.1C226.1,81.3,227,74.7,226.1,69z
		 M155.3,45.9c-1.9,1.9-4.2,2.8-7.1,2.8h-14.6l-9.9-15.1c-1.4-1.9-4.2-2.8-6.6-1.4c-2.4,1.4-2.8,4.2-1.4,6.6l6.6,9.9h-14.2
		c-0.5,0-0.9-0.5-0.9-0.9v-34c27.4,5.7,41.5,15.1,56.2,24.5L155.3,45.9z"/>
</g>
</svg>
