<?xml version="1.0" encoding="utf-8"?>
<!-- Generator: Adobe Illustrator 23.0.1, SVG Export Plug-In . SVG Version: 6.00 Build 0)  -->
<svg version="1.1" id="Layer_1" xmlns="http://www.w3.org/2000/svg" xmlns:xlink="http://www.w3.org/1999/xlink" x="0px" y="0px"
	 viewBox="0 0 302.7012329 256.9536133" style="enable-background:new 0 0 302.7012329 256.9536133;" xml:space="preserve">
<style type="text/css">
	.st0{fill:#8688A2;}
</style>
<g>
	<path class="st0" d="M84.8575287,183.0093536c11.3280182,0,20.7680283-9.4400177,20.7680283-20.7680359
		s-9.4400101-20.7680359-20.7680283-20.7680359s-20.7680283,9.4400177-20.7680283,20.7680359
		C64.0895081,173.5693359,73.5295181,183.0093536,84.8575287,183.0093536z"/>
	<path class="st0" d="M220.321701,183.0093536c11.3280182,0,20.7680359-9.4400177,20.7680359-20.7680359
		s-9.4400177-20.7680359-20.7680359-20.7680359c-11.8000183,0-20.7680359,9.4400177-20.7680359,20.7680359
		C199.5536804,173.5693359,208.5216827,183.0093536,220.321701,183.0093536z"/>
	<path class="st0" d="M264.2177734,142.8893127L264.2177734,142.8893127L264.2177734,142.8893127
		c-0.9440002-7.5520172-4.2480164-12.7440338-7.552002-14.6320343
		c-12.7440186-8.9680023-25.9600372-15.1040192-40.1200562-18.8800201c-3.776001-0.9440002-6.608017-2.3600006-9.9120026-4.2480011
		c-31.1520386-20.7680283-58.056076-33.9840469-143.0161743-30.6800385
		c-8.0240097,0.4720001-15.1040192,5.6640015-17.4640236,13.216011
		c-4.7200317,15.1040268-8.0240364,32.0960464-8.0240364,50.5040665c0,8.0240173,2.8320045,16.0480194,8.9680138,21.7120361
		c2.3600006,2.3600006,4.720005,4.2480164,8.0240097,5.6640015c0-0.9440002,0-1.8880005,0-3.3040009
		c0-16.9920197,13.6880226-30.2080383,30.2080421-30.2080383s30.2080307,13.6880188,30.2080307,30.2080383
		c0,2.3600006-0.4720001,4.2480164-0.9440002,6.608017h75.9920959c-0.4719849-1.8880157-0.4719849-4.2480164-0.4719849-6.608017
		c0-16.9920197,13.6880188-30.2080383,30.2080383-30.2080383s30.2080536,13.6880188,30.2080536,30.2080383
		c0,2.3600006,0,4.2480164-0.4720001,6.608017h2.3600006c3.7760162,0,7.5520172-2.3600006,8.9680328-6.1360016
		C264.2177734,155.1613159,265.1617737,148.5533142,264.2177734,142.8893127z M193.4176788,119.7612762
		c-1.8880005,1.8880005-4.2480164,2.8320084-7.0800018,2.8320084h-14.632019l-9.9120178-15.1040268
		c-1.4160004-1.8880005-4.2480011-2.8320007-6.608017-1.4160004c-2.3600006,1.4160004-2.8320007,4.2480087-1.4159851,6.6080093
		l6.6080017,9.9120178h-14.1600189c-0.4720001,0-0.9440002-0.4720078-0.9440002-0.9440079V87.6652374
		c27.3760223,5.6640091,41.5360413,15.1040268,56.1680603,24.5440369L193.4176788,119.7612762z"/>
</g>
</svg>
