<?xml version="1.0" encoding="UTF-8"?>
<svg width="56px" height="23px" viewBox="0 0 56 23" version="1.1" xmlns="http://www.w3.org/2000/svg" xmlns:xlink="http://www.w3.org/1999/xlink">
    <!-- Generator: sketchtool 53.2 (72643) - https://sketchapp.com -->
    <title>92FDB4D8-E542-4630-9692-F4014ACC6998</title>
    <desc>Created with sketchtool.</desc>
    <g id="WEB" stroke="none" stroke-width="1" fill="none" fill-rule="evenodd">
        <g id="Kasa-Tipi" transform="translate(-65.000000, -294.000000)" fill="#A2A5B7">
            <g id="Group" transform="translate(41.000000, 45.000000)">
                <g id="Group-63" transform="translate(22.000000, 249.000000)">
                    <g id="Group-7" transform="translate(2.000000, 0.000000)">
                        <path d="M4.39215686,18.1069948 C4.39215686,15.8387806 6.23587054,14 8.50980386,14 C10.7837372,14 12.6274509,15.8387806 12.6274509,18.1069948 C12.6274509,20.375505 10.7837372,22.2142856 8.50980386,22.2142856 C6.23587054,22.2142856 4.39215686,20.375505 4.39215686,18.1069948" id="Fill-1"></path>
                        <path d="M41.2862745,18.0714286 C41.2862745,15.9543898 43.006729,14.2380952 45.1295597,14.2380952 C47.2520946,14.2380952 48.972549,15.9543898 48.972549,18.0714286 C48.972549,20.1884673 47.2520946,21.9047619 45.1295597,21.9047619 C43.006729,21.9047619 41.2862745,20.1884673 41.2862745,18.0714286" id="Fill-3"></path>
                        <path d="M39.0794026,8.85575409 C38.6960022,8.85575409 29.4403258,8.52182508 28.7632686,8.27645632 C28.1394538,8.05085788 27.75276,4.55448841 27.939383,2.97746599 C27.9553008,2.84286525 28.1452172,2.61862095 28.387827,2.61862095 L32.781426,2.61862095 C34.0905313,2.61862095 39.508361,6.98461415 39.4630775,7.4745392 C39.4180684,7.96473507 39.4630775,8.85575409 39.0794026,8.85575409 L39.0794026,8.85575409 Z M23.9774869,7.98721367 C23.1198446,7.98721367 16.3023425,7.60859829 16.3023425,7.60859829 C16.3023425,7.60859829 15.9636767,7.51922556 15.9861812,7.11840241 C16.0053924,6.78176514 16.0240547,3.80186171 16.1900943,2.76730467 C16.2216555,2.56878888 16.3226515,2.34481541 16.607526,2.31773276 C18.0157061,2.18448615 23.6777924,2.32883664 23.9324779,2.32883664 C24.5927939,2.32883664 24.8806873,3.04165186 24.8579083,3.42053806 C24.8354038,3.79915344 24.8584572,7.4745392 24.8584572,7.4745392 C24.8584572,7.4745392 24.8354038,7.98721367 23.9774869,7.98721367 L23.9774869,7.98721367 Z M14.6092879,7.5636411 C14.6092879,7.5636411 9.48511486,7.40358267 7.13723312,7.12273564 C4.78962583,6.84161778 4.33816289,4.19428923 4.29287937,3.39183046 C4.2478703,2.58964252 5.050898,2.32883664 5.56026895,2.32883664 L14.3922014,2.32883664 C14.6092879,2.32883664 14.6092879,2.62891235 14.6092879,2.62891235 L14.6092879,7.5636411 Z M55.7887459,13.9803322 C55.629293,13.8543979 55.43773,13.5082817 55.43773,13.5082817 C55.43773,13.5082817 55.1827701,11.3993561 53.9065983,10.3287792 C52.6309753,9.25847302 48.03758,8.97518856 46.1235967,8.78642252 C44.2096134,8.59765649 42.7742631,7.90515325 42.7742631,7.90515325 C42.7742631,7.90515325 35.6290731,2.52247756 34.1618871,1.38933969 C32.6944267,0.255930995 27.3229783,0 27.3229783,0 L4.01404269,0 C1.48722244,0 1.44825117,3.534556 1.44825117,3.534556 C1.44825117,3.534556 0.523918538,15.573875 0.548069747,15.5500423 C-0.150668641,15.573875 0.0178409312,17.4041202 0.0178409312,17.3805583 C0.427313702,18.1648717 3.31804875,18.5767987 3.31804875,18.5767987 L3.73767601,18.5767987 C3.67784688,18.2715773 3.64409007,17.9568769 3.64409007,17.6340518 C3.64409007,14.9033087 5.8876825,12.6893025 8.65491705,12.6893025 C11.422426,12.6893025 13.6654696,14.9033087 13.6654696,17.6340518 C13.6654696,17.9568769 13.6317128,18.2715773 13.5721581,18.5767987 L40.4991095,18.5767987 C40.4708416,18.3715122 40.4510815,18.1632467 40.4510815,17.9503771 C40.4510815,15.3943171 42.5508645,13.3219531 45.1416305,13.3219531 C47.7318477,13.3219531 49.8319051,15.3943171 49.8319051,17.9503771 C49.8319051,18.1632467 49.8118706,18.3715122 49.7838771,18.5767987 L50.0953728,18.5767987 L54.3920925,18.6190476 C55.3526519,18.3820745 55.7887459,16.7500743 55.7887459,16.7500743 C56.171323,15.9319076 55.9481988,14.1062665 55.7887459,13.9803322 L55.7887459,13.9803322 Z" id="Fill-5"></path>
                    </g>
                </g>
            </g>
        </g>
    </g>
</svg>