<?xml version="1.0" encoding="utf-8"?>
<!-- Generator: Adobe Illustrator 23.0.1, SVG Export Plug-In . SVG Version: 6.00 Build 0)  -->
<svg version="1.1" id="Layer_1" xmlns="http://www.w3.org/2000/svg" xmlns:xlink="http://www.w3.org/1999/xlink" x="0px" y="0px"
	 viewBox="0 0 302.7012329 256.9536133" style="enable-background:new 0 0 302.7012329 256.9536133;" xml:space="preserve">
<style type="text/css">
	.st0{fill-rule:evenodd;clip-rule:evenodd;fill:#8688A2;}
</style>
<g>
	<path class="st0" d="M23.8506203,149.8805389v11c0,2,2,3,4,3h14h9c0-12,10-23,22.9999962-23c12,0,23,11,23,23h112c0-12,11-23,23-23
		c13,0,23,11,23,23h21c2,0,3-1,3-4l-1-12l-5-2l-2-25c0-3-1-6-4-7l-29-9l-36-27c-4-2-9-4-15-4c-48,0-96,0-145,0c-6,0-8,3-8,7l-7,65
		C25.8506203,145.8805389,23.8506203,147.8805389,23.8506203,149.8805389z M159.8506165,78.8805389h25c3,0,8,2,11,4l33,27
		c-18,0-39,0-68-3L159.8506165,78.8805389z M112.8506165,78.8805389h36v27c-10-1-22-2-35-4L112.8506165,78.8805389z
		 M66.8506165,98.8805389l2-20h32l1,22L66.8506165,98.8805389z M38.8506203,96.8805389l6-15c1-3,7-3,9-3h3l-2,19
		L38.8506203,96.8805389z"/>
	<path class="st0" d="M250.2521362,164.5354309c0,10.592926-7.9447021,18.5376434-17.6549072,18.5376434
		c-9.7101898,0-18.5376434-7.9447174-18.5376434-18.5376434c0-9.7102051,8.8274536-17.6549072,18.5376434-17.6549072
		C242.3074341,146.8805237,250.2521362,154.8252258,250.2521362,164.5354309z"/>
	<path class="st0" d="M91.5001602,164.5354309c0,10.592926-7.9447021,18.5376434-17.6548996,18.5376434
		s-18.5376472-7.9447174-18.5376472-18.5376434c0-9.7102051,8.8274498-17.6549072,18.5376472-17.6549072
		S91.5001602,154.8252258,91.5001602,164.5354309z"/>
</g>
</svg>
