<?xml version="1.0" encoding="utf-8"?>
<!-- Generator: Adobe Illustrator 21.0.2, SVG Export Plug-In . SVG Version: 6.00 Build 0)  -->
<svg version="1.1" id="Layer_1" xmlns="http://www.w3.org/2000/svg" xmlns:xlink="http://www.w3.org/1999/xlink" x="0px" y="0px"
	 viewBox="0 0 255 109.2" style="enable-background:new 0 0 255 109.2;" xml:space="preserve">
<style type="text/css">
	.st0{fill:#8688A2;}
</style>
<g>
	<path class="st0" d="M254,74l-5-2l-2-25c0-3-1-6-4-7l-29-9L178,4c-4-2-9-4-15-4C115,0,67,0,18,0c-6,0-8,3-8,7L3,72c-1,0-3,2-3,4v11
		c0,2,2,3,4,3h14h9c0-12,10-23,23-23c12,0,23,11,23,23h112c0-12,11-23,23-23c13,0,23,11,23,23h21c2,0,3-1,3-4L254,74z M31,24l-16-1
		l6-15c1-3,7-3,9-3h3L31,24z M43,25l2-20h32l1,22L43,25z M125,32c-10-1-22-2-35-4L89,5h36V32z M137,33l-1-28h25c3,0,8,2,11,4l33,27
		C187,36,166,36,137,33z"/>
	<path class="st0" d="M208.7,73c-9.7,0-18.5,7.9-18.5,17.7c0,10.6,8.8,18.5,18.5,18.5s17.7-7.9,17.7-18.5
		C226.4,80.9,218.5,73,208.7,73z"/>
	<path class="st0" d="M50,73c-9.7,0-18.5,7.9-18.5,17.7c0,10.6,8.8,18.5,18.5,18.5s17.7-7.9,17.7-18.5C67.6,80.9,59.7,73,50,73z"/>
</g>
</svg>
