<?xml version="1.0" encoding="utf-8"?>
<!-- Generator: Adobe Illustrator 21.0.2, SVG Export Plug-In . SVG Version: 6.00 Build 0)  -->
<svg version="1.1" id="Layer_1" xmlns="http://www.w3.org/2000/svg" xmlns:xlink="http://www.w3.org/1999/xlink" x="0px" y="0px"
	 viewBox="0 0 52 19" style="enable-background:new 0 0 52 19;" xml:space="preserve">
<title>SUV</title>
<desc></desc>
<g id="Clip-2">
</g>
<path d="M43.3,11.2c2.2,0,3.9,1.7,3.9,3.9S45.5,19,43.3,19s-3.9-1.7-3.9-3.9S41.2,11.2,43.3,11.2"/>
<path d="M9.7,11.2c2.2,0,3.9,1.7,3.9,3.9S11.8,19,9.7,19c-2.2,0-3.9-1.7-3.9-3.9S7.5,11.2,9.7,11.2"/>
<path d="M51.8,11.4c0-0.3,0-0.5-0.1-0.7c-0.1-0.2-0.1-0.1-0.4-0.1c-0.2-0.4,0-1.1-0.4-1.9c-0.4-0.7-0.6-1.1-1.8-1.4
	c-3.6-0.9-7.2-1.2-10.8-1.6c-3-1.4-5.6-3.8-8.8-4.8c-1.1-0.4-2.6-0.6-4.1-0.7C21.3-0.1,15.6,0,11.3,0.1C9.6,0.2,8,0.3,7.1,0.7
	C6.6,0.9,7.4,1.4,6.9,1.9C6.2,2.5,4.6,3.7,3.8,4.4C2.9,5.1,1.4,5.9,1.3,6.7C1.2,8,1.1,9,1,10.3c0,0.1-0.3,0.2-0.5,0.2
	C0.1,10.6,0,10.9,0,11.3c0,1,0,2.6,0.3,3.4c0.2,0.7,0.7,0.8,1.3,0.8h2.1c0.9,0,0.8,0,0.9-0.9C4.8,12.1,7,10,9.7,10
	c2.7,0,4.9,2.1,5.1,4.7c0,0.8,0,0.8,0.8,0.8h21.8c1.1,0,0.8-0.2,1-1.3c0.4-2.4,2.5-4.3,5-4.3c2.6,0,4.8,2,5.1,4.5c0.1,0.9,0,1,0.9,1
	h1.7c0.1,0,0.1-0.1,0.2-0.1C52.2,14.7,51.9,12.7,51.8,11.4z M4.7,5.4C4.1,5.5,3.4,5.6,4.1,5C5.4,4,6.7,3.1,8,2C8.4,2,8.8,2,9.3,2
	C8,3.5,6.7,5,4.7,5.4z M13.6,5.8c-0.8,0-0.5-0.1-1.2-0.1c-1,0-1-0.4-0.3-1.3c0.2-0.3,1.1-1.5,2.3-2C13.9,3.5,13.7,4.6,13.6,5.8z
	 M21.5,6.1c-1.9,0-4.7-0.2-6.9-0.3c0-1.2,0.3-2.5,0.6-3.6c2.1-0.9,3.7-0.7,6-0.8c0.2,0,0.4,0.1,0.4,0.2c0.2,0.6,0.3,1.5,0.6,4
	C22.4,6.3,22.3,6.1,21.5,6.1z M32.6,5.6c0,0.4,0.2,0.8,0.2,0.9c0,0.1-6.1-0.3-8.3-0.3c-0.6,0-0.7-0.1-0.8-0.7
	c-0.2-1.2-0.3-2.9-0.6-3.7c-0.1-0.2,0-0.4,0.3-0.4c0.6,0,1.1,0,1.7,0c1.3,0,3.4,0.2,4.1,0.4c2,0.7,4,2,5.5,3.1
	C33.8,4.9,32.6,5,32.6,5.6z"/>
</svg>
