<?xml version="1.0" encoding="utf-8"?>
<!-- Generator: Adobe Illustrator 23.0.1, SVG Export Plug-In . SVG Version: 6.00 Build 0)  -->
<svg version="1.1" id="Layer_1" xmlns="http://www.w3.org/2000/svg" xmlns:xlink="http://www.w3.org/1999/xlink" x="0px" y="0px"
	 viewBox="0 0 302.7012329 256.9536133" style="enable-background:new 0 0 302.7012329 256.9536133;" xml:space="preserve">
<style type="text/css">
	.st0{fill:#8688A2;}
</style>
<g>
	<path class="st0" d="M223.319809,130.9237213c-10.5349121,0-19.104599,8.572403-19.104599,19.104599
		s8.5696869,19.1018677,19.104599,19.1018677c10.532196,0,19.1018677-8.5696869,19.1018677-19.1018829
		C242.4216766,139.4961243,233.852005,130.9237213,223.319809,130.9237213L223.319809,130.9237213z"/>
	<path class="st0" d="M71.3145905,130.9237213c-10.5349197,0-19.1045952,8.572403-19.1045952,19.104599
		s8.5696754,19.1018677,19.1045952,19.1018677c10.532196,0,19.1018677-8.5696869,19.1018677-19.1018829
		C90.4164581,139.4961243,81.8467865,130.9237213,71.3145905,130.9237213L71.3145905,130.9237213z"/>
	<path class="st0" d="M22.5610867,138.002182c0.1431236,4.8716278-0.2862263,9.9121399,2.86516,12.9805298
		c2.6991501,2.627594,12.9633484,4.682724,20.6285896,5.2208252c-0.352047-1.6858826-0.5352402-3.4319-0.5352402-5.2208252
		c0-14.2227783,11.5722694-25.7921829,25.7950401-25.7921829c14.219902,0,25.7921753,11.5694046,25.7921753,25.7921829
		c0,2.7706909-0.4465332,5.4440918-1.2594223,7.9514618c17.7147751,0.1144867,87.5119247,0.9960785,103.3318558,1.1220093
		c-1.0647736-2.8250885-1.6515503-5.8820038-1.6515503-9.0734711c0-14.2227783,11.5694122-25.7921829,25.7921753-25.7921829
		s25.7921753,11.5694046,25.7921753,25.7921829c0,2.3213196-0.3148499,4.5710907-0.8930359,6.7120819
		c11.4177094-0.4522247,26.3302765-1.3166504,29.968277-3.0683746c3.869812-1.8633575,0.8128662-8.8330536,0.9559937-11.2717285
		c0.1402588-2.4358215,4.7714539-16.1004333-7.9772339-20.3938828c-14.0424194-4.7285156-37.1125641-9.6001434-57.1715393-9.6001434
		c0,0-27.0830688-15.4764557-46.1402588-20.4912033c-19.0543365-5.01474-33.2398682-5.1578522-57.7440186-5.01474
		s-46.4264641,2.1495819-57.0284233,3.7238464s-10.4617004,3.4376221-13.0406342,5.7303162
		c-2.5789337,2.2955704-15.0442543,15.1902313-15.968771,19.9502258
		C23.3368015,121.045929,22.4180069,133.1334076,22.5610867,138.002182z M43.6705399,107.0521469
		c1.5284805-1.6229248,6.497406-7.7368011,9.4570351-8.9790344s15.6682243-2.7706985,25.0279503-3.3431625
		s30.4720459-1.3366928,45.278717-1.4311447c14.8066635-0.0944595,25.9839401,0.8615417,35.0574417,2.4844742
		c9.0763397,1.6229248,25.4086304,8.5954895,40.4070587,19.2002945c0,0-10.9855042,1.2393875-21.5874481,0.6669235
		c-10.6048279-0.572464-41.6464539-2.7163239-54.7328796-2.7392197c-15.473587-0.0257568-34.4649429-0.1259384-53.1614685-0.1259384
		c-18.6993904,0-25.8637199-1.9349136-26.3646317-2.3642578C42.5485458,109.9917297,42.1420593,108.6750717,43.6705399,107.0521469z
		"/>
</g>
</svg>
