<?xml version="1.0" encoding="utf-8"?>
<!-- Generator: Adobe Illustrator 21.0.2, SVG Export Plug-In . SVG Version: 6.00 Build 0)  -->
<svg version="1.1" id="Layer_1" xmlns="http://www.w3.org/2000/svg" xmlns:xlink="http://www.w3.org/1999/xlink" x="0px" y="0px"
	 viewBox="0 0 257.6 81.3" style="enable-background:new 0 0 257.6 81.3;" xml:space="preserve">
<style type="text/css">
	.st0{fill:#8688A2;}
</style>
<g>
	<path class="st0" d="M200.8,43.1c-10.5,0-19.1,8.6-19.1,19.1c0,10.5,8.6,19.1,19.1,19.1c10.5,0,19.1-8.6,19.1-19.1
		C219.9,51.7,211.3,43.1,200.8,43.1z"/>
	<path class="st0" d="M48.8,43.1c-10.5,0-19.1,8.6-19.1,19.1c0,10.5,8.6,19.1,19.1,19.1c10.5,0,19.1-8.6,19.1-19.1
		C67.9,51.7,59.3,43.1,48.8,43.1z"/>
	<path class="st0" d="M256.6,55.5c0.1-2.4,4.8-16.1-8-20.4c-14-4.7-37.1-9.6-57.2-9.6c0,0-27.1-15.5-46.1-20.5
		c-19.1-5-33.2-5.2-57.7-5c-24.5,0.1-46.4,2.1-57,3.7c-10.6,1.6-10.5,3.4-13,5.7c-2.6,2.3-15,15.2-16,20C0.8,33.2-0.1,45.3,0,50.2
		c0.1,4.9-0.3,9.9,2.9,13c2.7,2.6,13,4.7,20.6,5.2c-0.4-1.7-0.5-3.4-0.5-5.2c0-14.2,11.6-25.8,25.8-25.8c14.2,0,25.8,11.6,25.8,25.8
		c0,2.8-0.4,5.4-1.3,8c17.7,0.1,87.5,1,103.3,1.1c-1.1-2.8-1.7-5.9-1.7-9.1c0-14.2,11.6-25.8,25.8-25.8s25.8,11.6,25.8,25.8
		c0,2.3-0.3,4.6-0.9,6.7c11.4-0.5,26.3-1.3,30-3.1C259.5,64.9,256.5,58,256.6,55.5z M154.8,27.8c-10.6-0.6-41.6-2.7-54.7-2.7
		c-15.5,0-34.5-0.1-53.2-0.1C28.2,25,21,23,20.5,22.6c-0.5-0.4-0.9-1.7,0.6-3.4c1.5-1.6,6.5-7.7,9.5-9c3-1.2,15.7-2.8,25-3.3
		c9.4-0.6,30.5-1.3,45.3-1.4c14.8-0.1,26,0.9,35.1,2.5c9.1,1.6,25.4,8.6,40.4,19.2C176.4,27.2,165.4,28.4,154.8,27.8z"/>
</g>
</svg>
