<?xml version="1.0" encoding="utf-8"?>
<!-- Generator: Adobe Illustrator 23.0.1, SVG Export Plug-In . SVG Version: 6.00 Build 0)  -->
<svg version="1.1" id="Layer_1" xmlns="http://www.w3.org/2000/svg" xmlns:xlink="http://www.w3.org/1999/xlink" x="0px" y="0px"
	 viewBox="0 0 30 30" style="enable-background:new 0 0 30 30;" xml:space="preserve">
<style type="text/css">
	.st0{fill:#7BC5F8;}
	.st1{fill:#FFFFFF;}
</style>
<title>Artboard 1</title>
<path class="st0" d="M15,0L15,0c8.2842712,0,15,6.7157288,15,15l0,0c0,8.2842712-6.7157288,15-15,15l0,0
	C6.7157288,30,0,23.2842712,0,15l0,0C0,6.7157288,6.7157288,0,15,0z"/>
<path class="st1" d="M21.0116558,11.3304863c-0.1768646,0.0511398-0.3602772,0.0760479-0.5443745,0.0739269v-0.0604849
	c0.4452515-0.3455982,0.8214455-0.7719498,1.1089134-1.2567692c0.0403233-0.1411343,0-0.188179,0-0.1948996l-0.9207363,0.3897991
	l-0.7594357,0.3494759l0,0c-0.5864868-0.5992212-1.3928757-0.9319773-2.2312698-0.9207335
	c-1.4931469-0.0923157-2.7822046,1.0348606-2.8898954,2.5269785c-0.0008125,0.3219872,0.0398455,0.6427374,0.1209726,0.9543381
	c0,0.0739269,0-0.0739279,0,0c-1.2329006-0.1020384-2.4316263-0.456624-3.5216408-1.041707
	c-2.3119164-1.1694002-2.4597721-2.0162067-2.4597721-2.0162067c-0.4588032,0.8240604-0.5253563,1.8100328-0.1814585,2.6882753
	c0.2446661,0.4851675,0.6046734,0.9028673,1.0484276,1.216445l0,0c-0.2511654-0.0022383-0.5004969-0.0430384-0.7392759-0.1209726
	c-0.2045603-0.0456209-0.3984795-0.1300325-0.5712585-0.2486658c-0.2285032,0.5510969,0.2285032,1.5323172,1.0081034,2.2379894
	c0.3871555,0.2983179,0.8240013,0.5258436,1.2903719,0.6720686l-1.3038139,0.0336018
	c-0.0739269,1.2634907,2.6882753,2.0162067,2.6882753,2.0162067l0,0c-0.7722607,0.6227016-1.7299957,0.9703255-2.721879,0.9879417
	c-0.5028973,0.0006733-1.0032206-0.0717716-1.4852719-0.2150612c1.3393073,1.1628799,3.0658278,1.7815475,4.8388953,1.7339363
	c4.8724985-0.2553844,7.6212606-4.4423752,7.7556753-8.5554361l0,0c0.2584324-0.1649284,0.4935207-0.3638496,0.6989517-0.5914192
	c0.3170338-0.3162613,0.5905075-0.6733608,0.8132019-1.0618687C22.0533619,10.9272451,21.3208084,11.2498379,21.0116558,11.3304863z
	"/>
<path class="st1" d="M25.4899998,6.7600002C25.4899998,6.8800001,25.4899998,6.7600002,25.4899998,6.7600002z"/>
</svg>
