<?xml version="1.0" encoding="UTF-8"?>
<svg width="38px" height="21px" viewBox="0 0 38 21" version="1.1" xmlns="http://www.w3.org/2000/svg" xmlns:xlink="http://www.w3.org/1999/xlink">
    <!-- Generator: sketchtool 53.2 (72643) - https://sketchapp.com -->
    <title>990F15DB-866E-482E-93A2-621D5F84B998</title>
    <desc>Created with sketchtool.</desc>
    <defs>
        <polygon id="path-1" points="0.159506451 0.104207547 37.7704521 0.104207547 37.7704521 20.9060547 0.159506451 20.9060547"></polygon>
    </defs>
    <g id="WEB" stroke="none" stroke-width="1" fill="none" fill-rule="evenodd">
        <g id="Kasa-Tipi" transform="translate(-72.000000, -58.000000)">
            <g id="Group" transform="translate(41.000000, 45.000000)">
                <g id="Group-31" transform="translate(31.000000, 13.000000)">
                    <mask id="mask-2" fill="white">
                        <use xlink:href="#path-1"></use>
                    </mask>
                    <g id="Clip-30"></g>
                    <path d="M19.2337565,7.90698704 C22.4899364,8.00392225 25.5358823,8.08824874 25.5206,8.02790377 C25.493,7.92092264 25.3494,7.51637547 25.3238,7.09043208 C25.2802,6.37128113 26.8746,6.31739434 27.6982,6.37048868 C26.101,4.89256415 24.7846,2.53422453 22.663,1.80596038 C20.9138,1.22588491 14.7014,1.4133 12.8266,1.37407358 C12.5006,1.37011132 12.3146,1.70492264 12.1982,1.94979057 C11.5374,3.33579057 10.8762,5.72345094 10.9886,6.99137547 C11.0418,7.59363962 11.3514,7.70537547 11.9678,7.71052642 C12.8993628,7.71810505 15.1057575,7.78320252 17.4736773,7.85424862 L17.48032,7.83062264 L19.2337565,7.90698704 Z M4.0682,6.36652642 C3.7794,7.18037547 3.8786,7.34956415 4.6874,7.42286604 C5.0866,7.45931887 6.393,7.47318679 6.6414,7.45614906 C8.1318,7.35313019 8.299,7.53697925 8.817,6.87052642 C9.3726,6.15573396 9.8198,4.0248283 10.3814,2.22714906 C10.555,1.6712434 10.7946,1.42994151 10.2978,1.35941321 C10.0458,1.32375283 9.369,1.37169623 8.9826,1.34752642 C6.871,1.35545094 4.6634,4.6893 4.0682,6.36652642 Z M34.2238,16.7583566 C34.2238,19.0489415 32.349,20.9060547 30.0362,20.9060547 C27.7234,20.9060547 25.8486,19.0489415 25.8486,16.7583566 C25.8486,14.4673755 27.7234,12.6102623 30.0362,12.6102623 C32.349,12.6102623 34.2238,14.4673755 34.2238,16.7583566 Z M11.8834,16.7583566 C11.8834,19.0489415 10.0086,20.9060547 7.6962,20.9060547 C5.3834,20.9060547 3.5086,19.0489415 3.5086,16.7583566 C3.5086,14.4673755 5.3834,12.6102623 7.6962,12.6102623 C10.0086,12.6102623 11.8834,14.4673755 11.8834,16.7583566 Z M2.2614,17.5416962 C2.2958,18.5643566 2.5234,18.7711868 1.2014,18.5469226 C0.257,18.3868472 0.1654,16.1553 0.1722,14.8406208 C0.1762,14.1068094 0.0006,13.8563943 0.8402,13.7478283 C1.1026,13.7137528 1.3674,13.7549604 1.3734,13.6689792 C1.4518,12.5306208 1.5462,10.3386962 2.1086,7.81156415 C2.6222,5.50552642 4.6886,2.9118283 5.603,1.43746981 C6.101,0.633922642 5.5078,0.250771698 5.8626,0.223828302 C9.5126,-0.0551150943 15.0122,0.257507547 18.951,0.133884906 C20.5838,0.0827716981 22.2034,0.319715094 23.363,0.747243396 C24.0734,1.00954528 24.4858,1.14307358 25.2334,1.61062075 C28.5098,3.65831887 32.1022,6.86696038 33.715,7.96648868 C34.5078,8.50733774 36.4178,10.3795075 36.8042,11.2159415 C37.409,12.5246774 36.9178,13.9320736 36.9514,14.0113189 C37.4138,14.0489604 37.5254,14.471734 37.517,15.0426962 C37.5042,15.9389604 37.5882,16.5780736 37.3362,17.466017 C37.1506,18.120583 38.2342,18.4993755 37.5294,18.5223566 L36.2286,18.5643566 C35.597,18.4454887 35.403,18.4795642 35.4574,17.642734 C35.4758,17.3562623 35.4802,17.0614698 35.4802,16.7583566 C35.4802,13.7799226 33.0426,11.3653189 30.0362,11.3653189 C27.0294,11.3653189 24.5922,13.7799226 24.5922,16.7583566 C24.5922,17.1743943 24.5926,17.5801302 24.6202,17.9692245 C24.7146,19.2969792 25.1314,19.1590925 23.8442,19.224866 L14.1494,19.2010925 C13.2134,19.0881679 12.963,19.1991113 13.0926,17.9410925 C13.1322,17.5607151 13.1402,17.1644887 13.1402,16.7583566 C13.1402,13.7799226 10.7026,11.3653189 7.6962,11.3653189 C4.6894,11.3653189 2.2518,13.7799226 2.2518,16.7583566 C2.2518,17.0262057 2.2526,17.2873189 2.2614,17.5416962 Z M19.2337565,7.90698704 C18.6483362,7.8895593 18.0561204,7.87172401 17.4736773,7.85424862 L16,13.0956521 L18.3287913,13.0956521 L17.3540478,18.3864906 L22.2944,10.311977 L20.0194289,10.311977 L20.6,7.96648868 L19.2337565,7.90698704 Z" id="Combined-Shape" fill="#A2A5B7" mask="url(#mask-2)"></path>
                </g>
            </g>
        </g>
    </g>
</svg>