<?xml version="1.0" encoding="UTF-8"?>
<svg width="56px" height="22px" viewBox="0 0 56 22" version="1.1" xmlns="http://www.w3.org/2000/svg" xmlns:xlink="http://www.w3.org/1999/xlink">
    <!-- Generator: sketchtool 53.2 (72643) - https://sketchapp.com -->
    <title>06F118C4-FF7D-403F-B1E2-DB6B4552602F</title>
    <desc>Created with sketchtool.</desc>
    <g id="WEB" stroke="none" stroke-width="1" fill="none" fill-rule="evenodd" opacity="0.400000006">
        <g id="Kasa-Tipi" transform="translate(-62.000000, -238.000000)" fill="#161D4C">
            <g id="Group" transform="translate(41.000000, 45.000000)">
                <g id="Group-36" transform="translate(21.000000, 193.000000)">
                    <g id="Group-3" transform="translate(28.000000, 11.000000) scale(-1, 1) translate(-28.000000, -11.000000) ">
                        <path d="M49.38476,17.03868 C49.38476,19.60108 47.30756,21.67828 44.74556,21.67828 C42.18356,21.67828 40.10596,19.60108 40.10596,17.03868 C40.10596,14.47668 42.18356,12.39948 44.74556,12.39948 C47.30756,12.39948 49.38476,14.47668 49.38476,17.03868 Z M13.62036,17.03868 C13.62036,19.60108 11.54356,21.67828 8.98156,21.67828 C6.41916,21.67828 4.34196,19.60108 4.34196,17.03868 C4.34196,14.47668 6.41916,12.39948 8.98156,12.39948 C11.54356,12.39948 13.62036,14.47668 13.62036,17.03868 Z M17.79636,6.51828 C17.48956,6.51828 17.95356,6.33188 17.97636,5.93868 C18.01596,5.27428 16.80076,5.22468 16.04716,5.27348 L19.19516,2.44428 C19.63716,2.04748 19.92876,1.86348 20.48076,1.61228 C21.26716,1.25468 21.92316,1.05708 22.62796,1.05708 L27.13716,1.05708 C27.43516,1.05308 27.42396,1.17908 27.38716,1.42628 C27.25316,2.32268 26.99996,4.71228 26.79836,5.83068 C26.69956,6.37988 26.58156,6.51828 26.01796,6.51828 L17.79636,6.51828 Z M28.70116,1.49108 C28.74716,1.22468 28.79756,1.05388 29.12676,1.05708 L30.51076,1.05708 C30.62036,1.05708 30.9788,1.1064 31,1.5 L31.92196,5.66548 C32.2663006,6.5 31.87196,6.51828 31.37636,6.51828 L28.90876,6.51828 C28.14876,6.51828 28.12316,6.56428 28.20636,5.87788 C28.47276,3.68708 28.59516,2.10308 28.70116,1.49108 Z M55.87756,13.75028 C55.91156,12.83708 55.52276,13.13468 55.17116,12.88868 C55.09636,11.59948 55.16356,9.43388 55.02316,8.10948 C54.85916,6.56308 54.41756,6.37068 52.69276,6.37428 L35.37556,6.41788 C34.86876,6.41908 34.67676,6.33028 34.56916,6.25748 C34.20676,6.01228 33.5,3.5 32.60116,1.36148 C32.2204727,0.455748942 32.40196,-0.000119999993 31.38516,-0.000119999993 L22.28916,-0.000119999993 C20.93556,-0.000119999993 19.58596,0.64668 18.44796,1.57068 L13.26236,5.78108 C9.36396,6.12188 5.32116,6.78068 2.17916,7.59548 C1.19396,7.85108 0.79196,8.30588 0.79836,9.40108 L0.82036,13.06268 C0.67196,13.07468 0.49716,13.10428 0.35156,13.15308 C0.04676,13.25508 0.03116,13.35948 0.01076,13.65788 C-0.00524,13.89548 0.000360000003,14.18988 0.00356,14.33708 C0.01756,14.92228 0.07436,16.59668 0.50036,16.91428 C0.70836,17.06948 1.04356,17.19308 1.33756,17.19908 L2.27876,17.21748 C2.98036,17.07828 3.11556,16.84948 3.24356,16.05988 C3.69916,13.24828 6.09476,11.21348 8.98156,11.22268 C11.98196,11.22268 14.44676,13.49548 14.76396,16.41268 C14.85436,17.24668 15.30076,17.25748 15.91396,17.26468 L38.31916,17.31428 C38.81196,17.31508 38.91116,17.03748 38.94756,16.57468 C39.18396,13.57988 41.68956,11.22268 44.74556,11.22268 C47.77036,11.22268 50.25596,13.53228 50.53556,16.48388 C50.60876,17.26148 50.59676,17.34028 51.29276,17.34148 L52.17996,17.34548 C52.98596,17.34708 55.55916,17.22388 55.77596,16.35948 C55.95636,15.63988 55.85036,14.48948 55.87756,13.75028 Z" id="Fill-1"></path>
                    </g>
                </g>
            </g>
        </g>
    </g>
</svg>