<?xml version="1.0" encoding="UTF-8"?>
<svg width="56px" height="18px" viewBox="0 0 56 18" version="1.1" xmlns="http://www.w3.org/2000/svg" xmlns:xlink="http://www.w3.org/1999/xlink">
    <!-- Generator: sketchtool 53.2 (72643) - https://sketchapp.com -->
    <title>206D4FEC-B921-4049-B8CD-FEE356A74BBE</title>
    <desc>Created with sketchtool.</desc>
    <g id="WEB" stroke="none" stroke-width="1" fill="none" fill-rule="evenodd">
        <g id="Kasa-Tipi" transform="translate(-192.000000, -61.000000)" fill="#A2A5B7">
            <g id="Group" transform="translate(41.000000, 45.000000)">
                <path d="M197.899309,25.6409491 C200.211924,25.6409491 202.086575,27.5121341 202.086575,29.8204745 C202.086575,32.1284158 200.211924,34 197.899309,34 C195.586694,34 193.712043,32.1284158 193.712043,29.8204745 C193.712043,27.5121341 195.586694,25.6409491 197.899309,25.6409491 L197.899309,25.6409491 Z M185.618689,22.6451368 C185.648687,22.7617116 179.120408,22.2950132 176.685803,22.2746525 C176.069052,22.2698618 175.926263,22.1269379 175.833471,21.524901 C175.640286,20.2773112 175.511496,18.4193008 175.190322,17.5593621 C175.09473,17.3034565 175.137526,17.152548 175.4635,17.1569396 L177.267756,17.1948663 C178.670044,17.22401 180.695483,17.5453891 181.441823,17.7945078 C183.563254,18.5286894 185.932664,19.7902522 187.529737,20.975163 C186.706203,20.9216664 185.378309,20.9755623 185.421905,21.7005616 C185.447503,22.1297325 185.591092,22.537345 185.618689,22.6451368 L185.618689,22.6451368 Z M155.372304,31.6701012 C156.188239,31.7323809 156.538211,31.8345834 156.440619,30.5869937 C156.421021,30.3338827 156.413821,30.0779771 156.413821,29.8204745 C156.413821,26.8198715 158.850827,24.3869717 161.857387,24.3869717 C164.863547,24.3869717 167.300952,26.8198715 167.300952,29.8204745 C167.300952,30.1342683 167.292553,30.4416744 167.267755,30.741096 C167.140565,32.2657504 167.07137,32.1128458 168.286873,32.2801227 L191.12625,32.3048749 C192.780118,32.223033 192.610131,32.5364275 192.482541,30.716743 C192.461743,30.425306 192.455744,30.1258845 192.455744,29.8204745 C192.455744,26.8198715 194.892749,24.3869717 197.899309,24.3869717 C200.905869,24.3869717 203.342874,26.8198715 203.342874,29.8204745 C203.342874,29.9861545 203.339275,30.1498382 203.331275,30.3119251 C203.277279,31.3918388 203.116892,31.5008282 203.967624,31.6569266 L205.391911,31.6106161 C205.713485,31.6002362 205.983863,31.4696884 206.211845,31.3000162 C206.510221,31.0776458 206.665809,30.7854104 206.835795,30.1821758 C207.012981,29.5533905 207.02458,28.6299745 206.973784,27.9293281 C206.951386,27.6199258 207.008582,27.368811 206.90619,27.1795766 C206.808598,26.9999236 206.796998,27.0781725 206.489023,27.0530211 C206.296238,26.5907142 206.096254,25.8269897 205.674688,25.0125631 C205.288319,24.2660054 204.740363,23.6843291 203.482063,23.3725315 C199.591974,22.4095918 195.328714,21.631495 191.488621,21.224681 C188.316074,19.7295694 185.267917,17.8116747 181.922585,16.7505247 C178.429263,15.6422658 172.852109,16.0890027 169.100008,16.0890027 C166.790593,16.0890027 164.873946,16.9780851 162.677721,17.9474124 C160.68348,18.828111 159.404782,19.8796794 157.852106,20.3699323 C155.669081,21.0597995 152.106565,21.1236761 151.92138,22.8583249 C151.767792,24.3027344 151.6694,25.8593272 151.587007,27.2650115 C151.573808,27.4965642 151.010253,27.4969634 151.007853,27.7193338 C150.997054,28.6315714 150.926659,30.4101354 151.54181,30.9806332 C151.735795,31.1606853 152.205757,31.2932293 152.79931,31.3950326 C153.559249,31.5251812 154.522772,31.6050269 155.372304,31.6701012 L155.372304,31.6701012 Z M166.651804,21.9077613 C168.979218,22.0355145 171.474619,22.1928106 173.527655,22.2175628 C174.361188,22.2275435 174.410384,22.4307509 174.318392,21.6809994 C173.983218,18.9402943 173.922823,18.0328474 173.665244,17.3665346 C173.623247,17.2583437 173.400865,17.1545442 173.21808,17.1569396 L170.017135,17.1948663 C169.060412,17.2060447 168.07249,17.3801084 167.128566,17.6575724 C166.972178,17.7010883 166.676202,17.8184615 166.308631,17.9789515 L166.651804,21.9077613 Z M165.750276,18.2304656 C164.540772,18.7905835 163.004095,19.5910371 162.773314,19.9064278 C162.600527,20.1419727 162.586128,20.2353922 162.654523,20.4346073 C162.745716,20.7004937 162.998895,21.2486347 163.159683,21.4877727 C163.272074,21.6550495 163.412862,21.7600467 163.681641,21.7688297 C164.417182,21.7935819 165.209119,21.8311094 166.029454,21.8742261 L165.750276,18.2304656 Z M161.857387,25.6409491 C164.169602,25.6409491 166.044652,27.5121341 166.044652,29.8204745 C166.044652,32.1284158 164.169602,34 161.857387,34 C159.544771,34 157.670121,32.1284158 157.670121,29.8204745 C157.670121,27.5121341 159.544771,25.6409491 161.857387,25.6409491 L161.857387,25.6409491 Z" id="Fill-1-Copy"></path>
            </g>
        </g>
    </g>
</svg>