<?xml version="1.0" encoding="UTF-8"?>
<svg width="52px" height="19px" viewBox="0 0 52 19" version="1.1" xmlns="http://www.w3.org/2000/svg" xmlns:xlink="http://www.w3.org/1999/xlink">
    <!-- Generator: sketchtool 53.2 (72643) - https://sketchapp.com -->
    <title>15ECC5D0-4754-4414-9320-62FA66434B89</title>
    <desc>Created with sketchtool.</desc>
    <defs>
        <polygon id="path-1" points="0 -9.52780538e-07 51.9127825 -9.52780538e-07 51.9127825 18.9527771 0 18.9527771"></polygon>
    </defs>
    <g id="WEB" stroke="none" stroke-width="1" fill="none" fill-rule="evenodd">
        <g id="Kasa-Tipi" transform="translate(-195.000000, -180.000000)">
            <g id="Group" transform="translate(41.000000, 45.000000)">
                <g id="Group-3" transform="translate(154.000000, 135.000000)">
                    <mask id="mask-2" fill="white">
                        <use xlink:href="#path-1"></use>
                    </mask>
                    <g id="Clip-2"></g>
                    <path d="M9.28444,1.95810833 C8.04724,3.486025 6.66244,5.03373333 4.65124,5.39948333 C4.10844,5.49804583 3.44684,5.5510875 4.12884,5.01592083 C5.41284,4.00931667 6.69684,3.08662917 7.98084,2.04242083 C8.41524,2.0147125 8.84964,1.9862125 9.28444,1.95810833 M14.26324,2.42242083 C13.13364,2.9409625 12.21084,4.12648333 11.99524,4.4182125 C11.36484,5.272025 11.33404,5.666275 12.33124,5.69912917 C13.01844,5.72169167 12.78924,5.75692083 13.55564,5.7969 C13.68804,4.6462125 13.90324,3.51650417 14.26324,2.42242083 M14.62124,5.827775 C16.79564,5.94612917 19.61084,6.09179583 21.52884,6.11475417 C22.30804,6.12385833 22.35364,6.312275 22.26764,5.6175875 C21.95444,3.07950417 21.89804,2.23915 21.65764,1.62204583 C21.61844,1.5219 21.41044,1.4257125 21.24004,1.42769167 C18.99684,1.4542125 17.40124,1.2665875 15.26964,2.189275 C14.89804,3.37637917 14.65084,4.58406667 14.62124,5.827775 M32.82404,6.5105875 C32.85164,6.61865 26.75364,6.1864 24.47924,6.16779583 C23.90324,6.16304583 23.77004,6.0308375 23.68284,5.47310833 C23.50244,4.31767083 23.38244,2.59698333 23.08204,1.80056667 C22.99284,1.5634625 23.03284,1.42373333 23.33764,1.42769167 C23.89924,1.43917083 24.46084,1.45104583 25.02284,1.46292083 C26.33284,1.49023333 28.39564,1.61848333 29.09284,1.84925417 C31.07484,2.5289 33.11724,3.86642083 34.60924,4.96406667 C33.84004,4.9145875 32.59924,4.9644625 32.64044,5.63619167 C32.66404,6.0332125 32.79804,6.4108375 32.82404,6.5105875 M43.32684,11.2111083 C45.48724,11.2111083 47.23844,12.9440667 47.23844,15.0819625 C47.23844,17.2198583 45.48724,18.9528167 43.32684,18.9528167 C41.16644,18.9528167 39.41524,17.2198583 39.41524,15.0819625 C39.41524,12.9440667 41.16644,11.2111083 43.32684,11.2111083 M9.65804,11.2111083 C11.81804,11.2111083 13.56924,12.9440667 13.56924,15.0819625 C13.56924,17.2198583 11.81804,18.9528167 9.65804,18.9528167 C7.49764,18.9528167 5.74604,17.2198583 5.74604,15.0819625 C5.74604,12.9440667 7.49764,11.2111083 9.65804,11.2111083 M0.27604,14.7565875 C0.49524,15.4520667 0.95804,15.598525 1.61804,15.598525 L3.73044,15.598525 C4.60284,15.598525 4.50164,15.593775 4.58844,14.67465 C4.83324,12.0855042 6.98524,10.0422125 9.65804,10.0422125 C12.35684,10.0422125 14.56484,12.1227125 14.73284,14.7514417 C14.78204,15.5233167 14.73164,15.598525 15.50884,15.598525 L37.28164,15.598525 C38.39284,15.598525 38.13044,15.4053583 38.30004,14.3314625 C38.67244,11.9738792 40.78124,10.0513167 43.32684,10.0422125 C45.95764,10.0422125 48.12164,12.0186083 48.38524,14.5527333 C48.47524,15.4192125 48.42044,15.5759625 49.25324,15.5759625 L50.91924,15.5759625 C50.97964,15.541525 51.03724,15.5256917 51.09204,15.4853167 C52.19644,14.6695042 51.89964,12.7160667 51.80404,11.4046708 C51.78284,11.1176917 51.83644,10.8853375 51.74084,10.7103792 C51.64924,10.5437333 51.63884,10.6161708 51.35084,10.5928167 C51.17084,10.164525 51.32604,9.45756667 50.93244,8.70350417 C50.57124,8.0115875 50.31564,7.55756667 49.14044,7.26900417 C45.50644,6.37719167 41.89444,6.051025 38.30764,5.6745875 C35.34324,4.2899625 32.66724,1.8650875 29.54244,0.882233333 C28.41404,0.527566667 26.94284,0.32965 25.46724,0.222775 C21.31884,-0.0780583333 15.56204,-0.0277875 11.31604,0.103233333 C9.58564,0.156670833 7.97644,0.313816667 7.11964,0.700941667 C6.58324,0.9234 7.44364,1.4494625 6.86764,1.91654583 C6.18284,2.47150417 4.56204,3.661775 3.77964,4.3612125 C2.89804,5.14892083 1.43164,5.87962917 1.34524,6.70810833 C1.20164,8.04562917 1.10964,9.0079 1.03324,10.3097958 C1.02644,10.4178583 0.76724,10.4716917 0.51084,10.5247333 C0.09044,10.6114208 0.00364,10.8892958 0.000840000004,11.3124417 C-0.00556,12.2929208 0.01524,13.9304833 0.27604,14.7565875" id="Fill-1" fill="#A2A5B7" mask="url(#mask-2)"></path>
                </g>
            </g>
        </g>
    </g>
</svg>