<?xml version="1.0" encoding="UTF-8"?>
<svg width="56px" height="22px" viewBox="0 0 56 22" version="1.1" xmlns="http://www.w3.org/2000/svg" xmlns:xlink="http://www.w3.org/1999/xlink">
    <!-- Generator: sketchtool 53.2 (72643) - https://sketchapp.com -->
    <title>166D5AC8-488D-4C05-8BDC-B5DECBDA2E48</title>
    <desc>Created with sketchtool.</desc>
    <defs>
        <polygon id="path-1" points="2.62783486e-05 0.0132124971 55.6072057 0.0132124971 55.6072057 21.67048 2.62783486e-05 21.67048"></polygon>
    </defs>
    <g id="WEB" stroke="none" stroke-width="1" fill="none" fill-rule="evenodd">
        <g id="Kasa-Tipi" transform="translate(-193.000000, -238.000000)">
            <g id="Group" transform="translate(41.000000, 45.000000)">
                <g id="Group-3" transform="translate(152.000000, 193.000000)">
                    <mask id="mask-2" fill="white">
                        <use xlink:href="#path-1"></use>
                    </mask>
                    <g id="Clip-2"></g>
                    <path d="M46.570434,13.29528 C48.8668312,13.29528 50.7283348,15.17008 50.7283348,17.48328 C50.7283348,19.79568 48.8668312,21.67048 46.570434,21.67048 C44.2740369,21.67048 42.4125333,19.79568 42.4125333,17.48328 C42.4125333,15.17008 44.2740369,13.29528 46.570434,13.29528 M16.1568738,6.70168 C16.1179518,7.54008 16.1314553,7.31368 15.305356,7.30288 C12.3584057,7.26288 9.65094468,6.95648 6.70836312,6.84648 C6.09315745,6.82288 5.98512908,6.48448 6.23017872,6.00328 C6.51971064,5.43608 7.78308652,4.04448 9.00555461,2.96208 C9.9178383,2.15368 12.7631149,1.58408 13.2071433,1.59008 C14.8513986,1.61368 14.2036255,1.60888 15.848278,1.63248 C16.0289872,1.63488 16.2382922,1.74688 16.2664908,1.86768 C16.3062071,2.03928 16.3637957,2.22448 16.3534695,2.44728 C16.2879376,3.86528 16.2224057,5.28328 16.1568738,6.70168 M38.9119376,8.04208 C38.9413277,8.17208 31.6652993,7.68728 29.2477674,7.66528 C28.635739,7.65928 28.4935546,7.49928 28.4010156,6.82448 C28.209583,5.42728 28.0058383,3.05208 27.7814411,2.04608 C27.7155121,1.74928 27.7294128,1.58968 28.0527035,1.59448 L30.6382355,1.59928 C33.897356,1.60488 38.2645617,4.03968 40.8091858,6.17088 C39.9918241,6.11088 38.6732426,6.17128 38.7165333,6.98368 C38.7419518,7.46448 38.8845333,7.92088 38.9119376,8.04208 M26.8969589,6.99968 C26.9883064,7.83928 26.9394553,7.61208 26.1117674,7.60088 C23.1604482,7.56088 20.9907461,7.46448 18.0354553,7.35368 C17.4178667,7.33048 17.4865759,7.05528 17.5028596,6.51048 L17.6311433,2.16528 C17.6502071,1.52888 17.9345759,1.51488 18.4056113,1.51808 L25.7856965,1.56888 C25.9672,1.57048 26.1880227,1.68328 26.2293277,1.80368 C26.4851007,2.55048 26.5645333,3.92888 26.8969589,6.99968 M4.83613617,19.30328 C5.41083121,19.35248 5.56691631,19.04128 5.46166809,18.45408 C5.40527092,18.13888 5.37588085,17.81448 5.37588085,17.48328 C5.37588085,14.47648 7.79579574,12.03888 10.7812709,12.03888 C13.7663489,12.03888 16.186661,14.47648 16.186661,17.48328 C16.186661,17.97248 16.1239092,18.44728 16.0019801,18.89808 C15.6822638,20.08288 16.0643348,19.85968 16.9305475,19.94408 L40.6936113,19.97288 C41.5355972,19.88928 41.6857248,20.05488 41.3834837,19.02048 C41.2416965,18.53328 41.165044,18.01728 41.165044,17.48328 C41.165044,14.47648 43.5849589,12.03888 46.570434,12.03888 C49.5559092,12.03888 51.9758241,14.47648 51.9758241,17.48328 C51.9758241,17.74008 51.9579518,17.99328 51.9237957,18.24128 C51.7760511,19.30848 51.819739,19.15128 52.701044,19.24208 L54.0104908,19.19368 C54.3298099,19.18248 54.5982922,19.03648 54.8246752,18.84608 C55.1209589,18.59688 55.2754553,18.26968 55.4442496,17.59368 C55.6201929,16.88848 55.6317106,15.85408 55.5812709,15.06968 C55.5590298,14.72248 55.6158241,14.44088 55.5141504,14.22968 C55.4172426,14.02808 55.4057248,14.11568 55.0999092,14.08728 C54.977583,13.79048 54.8008454,13.34088 54.6793135,12.84008 C54.493044,12.07008 54.3333844,11.48288 54.1197106,11.02048 C53.7900652,10.30528 53.4393702,9.77728 52.340817,9.37168 C49.6063489,8.36168 46.4751149,7.17008 44.4372709,6.45048 C40.7869447,4.24088 35.6615546,0.60888 31.3864908,0.29288 C30.6088454,0.23568 29.7612993,0.15368 28.8649021,0.14888 L9.77128511,0.03808 C8.15046241,0.02888 6.94030638,-0.01712 6.22620709,0.04568 C5.59630638,0.10168 5.49105816,0.00768 5.51250496,0.69008 C5.52044823,0.94928 5.50813617,1.26288 5.29843404,1.49648 C3.90717163,3.04528 2.93253333,5.74968 2.52742695,6.58688 C2.07267518,7.52728 1.47851915,8.35008 1.17945532,9.55768 C0.791824113,11.12528 0.664731915,12.75008 0.582916312,14.32528 C0.569809929,14.58488 0.0102070922,14.58528 0.00782411347,14.83408 C-0.00289929078,15.85568 -0.0728,17.84928 0.538036879,18.48808 C0.730660993,18.68968 1.19732766,18.83808 1.78671773,18.95248 C2.69344113,19.12728 3.89207943,19.22128 4.83613617,19.30328 M10.7812709,13.29528 C13.0772709,13.29528 14.9391716,15.17008 14.9391716,17.48328 C14.9391716,19.79568 13.0772709,21.67048 10.7812709,21.67048 C8.48487376,21.67048 6.62337021,19.79568 6.62337021,17.48328 C6.62337021,15.17008 8.48487376,13.29528 10.7812709,13.29528" id="Fill-1" fill="#A2A5B7" mask="url(#mask-2)"></path>
                </g>
            </g>
        </g>
    </g>
</svg>