<svg id="Layer_1" data-name="Layer 1" xmlns="http://www.w3.org/2000/svg" viewBox="0 0 600 450"><defs><style>.cls-1{fill:#f7f7fa;}.cls-2{fill:#ebebf3;}</style></defs><title>car-default</title><rect class="cls-1" width="600" height="450"/><ellipse class="cls-2" cx="449.17" cy="263.05" rx="33.05" ry="32.99"/><ellipse class="cls-2" cx="164.7" cy="263.05" rx="33.05" ry="32.99"/><path class="cls-2" d="M520.79,248.12c-.18-2.44.27-4.42-.53-5.92s-.86-.8-3.29-1c-1.52-3.65-3.1-9.68-6.43-16.1-3-5.89-7.37-10.48-17.31-12.94a726,726,0,0,0-94.66-17c-25-11.8-49.1-26.94-75.5-35.31-27.57-8.75-71.59-5.22-101.21-5.22-18.23,0-33.36,7-50.69,14.67-15.74,7-25.83,15.25-38.09,19.12-17.23,5.45-45.35,5.95-46.81,19.64-1.21,11.4-2,23.69-2.64,34.78-.1,1.83-4.55,1.83-4.57,3.59-.09,7.2-.64,21.24,4.21,25.74,1.53,1.42,5.24,2.47,9.93,3.27,6,1,13.6,1.66,20.31,2.17,6.44.49,9.2,1.3,8.43-8.55-.15-2-.21-4-.21-6.05a43,43,0,0,1,85.93,0c0,2.48-.07,4.9-.26,7.27-1,12-1.55,10.83,8,12.15l180.27.2c13.05-.65,11.71,1.83,10.7-12.53-.16-2.3-.21-4.66-.21-7.07a43,43,0,0,1,85.93,0q0,2-.09,3.88c-.43,8.52-1.69,9.38,5,10.62l11.24-.37a11.37,11.37,0,0,0,6.47-2.45c2.36-1.75,3.58-4.06,4.92-8.82C521.1,260.94,521.19,253.65,520.79,248.12ZM179.09,199.5a4.62,4.62,0,0,1-4.12-2.22,48.4,48.4,0,0,1-4-8.31c-.54-1.57-.43-2.31.94-4.17,1.82-2.49,14-8.81,23.5-13.23l2.2,28.76C191.15,200,184.9,199.69,179.09,199.5ZM256.81,203c-16.2-.2-35.9-1.44-54.27-2.44l-2.71-31A61.39,61.39,0,0,1,206.3,167a85.38,85.38,0,0,1,22.8-3.65l25.26-.3c1.44,0,3.2.8,3.53,1.65,2,5.26,2.51,12.42,5.16,34.05C263.77,204.72,263.39,203.12,256.81,203ZM350.69,199a34.23,34.23,0,0,0,1.55,7.46c.24.92-51.29-2.76-70.51-2.92-4.87,0-6-1.17-6.73-5.92-1.52-9.85-2.54-24.51-5.08-31.3-.75-2-.42-3.21,2.16-3.18l14.24.3c11.07.23,27.05,2.77,32.95,4.73,16.74,5.79,35.45,15.75,48.05,25.1C360.82,192.81,350.34,193.24,350.69,199Z"/></svg>